Interstate_Mono-Regular.ufo
<glyph name="exclam" format="1">
  <advance width="600"/>
  <unicode hex="0021"/>
  <outline>
    <contour>
      <point x="265" y="227" type="line"/>
      <point x="242" y="422" type="line"/>
      <point x="242" y="700" type="line"/>
      <point x="357" y="700" type="line"/>
      <point x="357" y="422" type="line"/>
      <point x="334" y="227" type="line"/>
    </contour>
    <contour>
      <point x="300" y="-11" type="curve" smooth="yes"/>
      <point x="256" y="-11"/>
      <point x="223" y="22"/>
      <point x="223" y="66" type="curve" smooth="yes"/>
      <point x="223" y="110"/>
      <point x="256" y="143"/>
      <point x="300" y="143" type="curve" smooth="yes"/>
      <point x="344" y="143"/>
      <point x="377" y="110"/>
      <point x="377" y="66" type="curve" smooth="yes"/>
      <point x="377" y="22"/>
      <point x="344" y="-11"/>
    </contour>
  </outline>
</glyph>
<glyph name="quotedbl" format="1">
  <advance width="600"/>
  <unicode hex="0022"/>
  <outline>
    <contour>
      <point x="371" y="384" type="line"/>
      <point x="349" y="700" type="line"/>
      <point x="476" y="700" type="line"/>
      <point x="454" y="384" type="line"/>
    </contour>
    <contour>
      <point x="146" y="384" type="line"/>
      <point x="124" y="700" type="line"/>
      <point x="251" y="700" type="line"/>
      <point x="229" y="384" type="line"/>
    </contour>
  </outline>
</glyph>
<glyph name="numbersign" format="1">
  <advance width="600"/>
  <unicode hex="0023"/>
  <outline>
    <contour>
      <point x="146" y="0" type="line"/>
      <point x="146" y="165" type="line"/>
      <point x="57" y="165" type="line"/>
      <point x="57" y="249" type="line"/>
      <point x="146" y="249" type="line"/>
      <point x="146" y="452" type="line"/>
      <point x="57" y="452" type="line"/>
      <point x="57" y="536" type="line"/>
      <point x="146" y="536" type="line"/>
      <point x="146" y="700" type="line"/>
      <point x="234" y="700" type="line"/>
      <point x="234" y="536" type="line"/>
      <point x="366" y="536" type="line"/>
      <point x="366" y="700" type="line"/>
      <point x="454" y="700" type="line"/>
      <point x="454" y="536" type="line"/>
      <point x="543" y="536" type="line"/>
      <point x="543" y="452" type="line"/>
      <point x="454" y="452" type="line"/>
      <point x="454" y="249" type="line"/>
      <point x="543" y="249" type="line"/>
      <point x="543" y="165" type="line"/>
      <point x="454" y="165" type="line"/>
      <point x="454" y="0" type="line"/>
      <point x="366" y="0" type="line"/>
      <point x="366" y="165" type="line"/>
      <point x="234" y="165" type="line"/>
      <point x="234" y="0" type="line"/>
    </contour>
    <contour>
      <point x="232" y="248" type="line"/>
      <point x="368" y="248" type="line"/>
      <point x="368" y="453" type="line"/>
      <point x="232" y="453" type="line"/>
    </contour>
  </outline>
</glyph>
<glyph name="dollar" format="1">
  <advance width="600"/>
  <unicode hex="0024"/>
  <outline>
    <contour>
      <point x="346" y="2" type="curve"/>
      <point x="346" y="-95" type="line"/>
      <point x="249" y="-95" type="line"/>
      <point x="249" y="1" type="line"/>
      <point x="172" y="12"/>
      <point x="108" y="49"/>
      <point x="63" y="102" type="curve"/>
      <point x="131" y="174" type="line"/>
      <point x="171" y="131"/>
      <point x="213" y="103"/>
      <point x="260" y="93" type="curve"/>
      <point x="260" y="317" type="line"/>
      <point x="130" y="365"/>
      <point x="81" y="421"/>
      <point x="81" y="522" type="curve" smooth="yes"/>
      <point x="81" y="620"/>
      <point x="146" y="684"/>
      <point x="249" y="699" type="curve"/>
      <point x="249" y="795" type="line"/>
      <point x="346" y="795" type="line"/>
      <point x="346" y="699" type="line"/>
      <point x="418" y="690"/>
      <point x="466" y="661"/>
      <point x="512" y="616" type="curve"/>
      <point x="443" y="540" type="line"/>
      <point x="407" y="576"/>
      <point x="375" y="598"/>
      <point x="335" y="607" type="curve"/>
      <point x="335" y="607"/>
      <point x="335" y="400"/>
      <point x="335" y="399" type="curve"/>
      <point x="468" y="352"/>
      <point x="524" y="298"/>
      <point x="524" y="193" type="curve" smooth="yes"/>
      <point x="524" y="90"/>
      <point x="456" y="18"/>
    </contour>
    <contour>
      <point x="260" y="428" type="curve"/>
      <point x="260" y="609" type="line"/>
      <point x="209" y="600"/>
      <point x="186" y="569"/>
      <point x="186" y="529" type="curve" smooth="yes"/>
      <point x="186" y="482"/>
      <point x="195" y="457"/>
    </contour>
    <contour>
      <point x="335" y="289" type="curve"/>
      <point x="335" y="92" type="line"/>
      <point x="388" y="102"/>
      <point x="418" y="136"/>
      <point x="418" y="186" type="curve" smooth="yes"/>
      <point x="418" y="234"/>
      <point x="406" y="259"/>
    </contour>
  </outline>
</glyph>
<glyph name="percent" format="1">
  <advance width="600"/>
  <unicode hex="0025"/>
  <outline>
    <contour>
      <point x="143" y="316" type="curve" smooth="yes"/>
      <point x="72" y="316"/>
      <point x="27" y="385"/>
      <point x="27" y="514" type="curve" smooth="yes"/>
      <point x="27" y="642"/>
      <point x="74" y="711"/>
      <point x="144" y="711" type="curve" smooth="yes"/>
      <point x="214" y="711"/>
      <point x="261" y="643"/>
      <point x="261" y="514" type="curve" smooth="yes"/>
      <point x="261" y="386"/>
      <point x="215" y="316"/>
    </contour>
    <contour>
      <point x="111" y="0" type="line"/>
      <point x="426" y="700" type="line"/>
      <point x="491" y="700" type="line"/>
      <point x="174" y="0" type="line"/>
    </contour>
    <contour>
      <point x="454" y="-11" type="curve" smooth="yes"/>
      <point x="384" y="-11"/>
      <point x="338" y="58"/>
      <point x="338" y="186" type="curve" smooth="yes"/>
      <point x="338" y="315"/>
      <point x="385" y="384"/>
      <point x="455" y="384" type="curve" smooth="yes"/>
      <point x="525" y="384"/>
      <point x="572" y="315"/>
      <point x="572" y="187" type="curve" smooth="yes"/>
      <point x="572" y="58"/>
      <point x="526" y="-11"/>
    </contour>
    <contour>
      <point x="145" y="378" type="curve" smooth="yes"/>
      <point x="172" y="378"/>
      <point x="190" y="406"/>
      <point x="190" y="513" type="curve" smooth="yes"/>
      <point x="190" y="620"/>
      <point x="171" y="649"/>
      <point x="144" y="649" type="curve" smooth="yes"/>
      <point x="116" y="649"/>
      <point x="98" y="622"/>
      <point x="98" y="515" type="curve" smooth="yes"/>
      <point x="98" y="408"/>
      <point x="118" y="378"/>
    </contour>
    <contour>
      <point x="456" y="51" type="curve" smooth="yes"/>
      <point x="483" y="51"/>
      <point x="501" y="78"/>
      <point x="501" y="186" type="curve" smooth="yes"/>
      <point x="501" y="293"/>
      <point x="482" y="322"/>
      <point x="455" y="322" type="curve" smooth="yes"/>
      <point x="427" y="322"/>
      <point x="409" y="294"/>
      <point x="409" y="188" type="curve" smooth="yes"/>
      <point x="409" y="80"/>
      <point x="429" y="51"/>
    </contour>
  </outline>
</glyph>
<glyph name="ampersand" format="1">
  <advance width="600"/>
  <unicode hex="0026"/>
  <outline>
    <contour>
      <point x="241" y="-11" type="curve" smooth="yes"/>
      <point x="121" y="-11"/>
      <point x="60" y="65"/>
      <point x="60" y="174" type="curve" smooth="yes"/>
      <point x="60" y="266"/>
      <point x="113" y="335"/>
      <point x="192" y="390" type="curve"/>
      <point x="168" y="426" type="line" smooth="yes"/>
      <point x="140" y="469"/>
      <point x="119" y="512"/>
      <point x="119" y="561" type="curve" smooth="yes"/>
      <point x="119" y="651"/>
      <point x="182" y="711"/>
      <point x="288" y="711" type="curve" smooth="yes"/>
      <point x="369" y="711"/>
      <point x="417" y="682"/>
      <point x="463" y="637" type="curve"/>
      <point x="405" y="562" type="line"/>
      <point x="360" y="606"/>
      <point x="331" y="621"/>
      <point x="286" y="621" type="curve" smooth="yes"/>
      <point x="240" y="621"/>
      <point x="217" y="597"/>
      <point x="217" y="561" type="curve" smooth="yes"/>
      <point x="217" y="532"/>
      <point x="225" y="506"/>
      <point x="247" y="473" type="curve" smooth="yes"/>
      <point x="406" y="233" type="line"/>
      <point x="423" y="271"/>
      <point x="437" y="315"/>
      <point x="450" y="362" type="curve"/>
      <point x="533" y="333" type="line"/>
      <point x="512" y="266"/>
      <point x="488" y="203"/>
      <point x="461" y="150" type="curve"/>
      <point x="560" y="0" type="line"/>
      <point x="450" y="0" type="line"/>
      <point x="404" y="68" type="line"/>
      <point x="361" y="17"/>
      <point x="309" y="-11"/>
    </contour>
    <contour>
      <point x="252" y="77" type="curve" smooth="yes"/>
      <point x="295" y="77"/>
      <point x="328" y="100"/>
      <point x="356" y="141" type="curve"/>
      <point x="240" y="318" type="line"/>
      <point x="186" y="279"/>
      <point x="157" y="238"/>
      <point x="157" y="182" type="curve" smooth="yes"/>
      <point x="157" y="118"/>
      <point x="189" y="77"/>
    </contour>
  </outline>
</glyph>
<glyph name="quotesingle" format="1">
  <advance width="600"/>
  <unicode hex="0027"/>
  <outline>
    <contour>
      <point x="258" y="384" type="line"/>
      <point x="236" y="700" type="line"/>
      <point x="365" y="700" type="line"/>
      <point x="343" y="384" type="line"/>
    </contour>
  </outline>
</glyph>
<glyph name="parenleft" format="1">
  <advance width="600"/>
  <unicode hex="0028"/>
  <outline>
    <contour>
      <point x="399" y="-110" type="line"/>
      <point x="291" y="-29"/>
      <point x="155" y="107"/>
      <point x="155" y="300" type="curve" smooth="yes"/>
      <point x="155" y="504"/>
      <point x="291" y="638"/>
      <point x="399" y="719" type="curve"/>
      <point x="455" y="667" type="line"/>
      <point x="355" y="580"/>
      <point x="270" y="472"/>
      <point x="270" y="306" type="curve" smooth="yes"/>
      <point x="270" y="134"/>
      <point x="355" y="30"/>
      <point x="456" y="-59" type="curve"/>
    </contour>
  </outline>
</glyph>
<glyph name="parenright" format="1">
  <advance width="600"/>
  <unicode hex="0029"/>
  <outline>
    <contour>
      <point x="201" y="-110" type="curve"/>
      <point x="144" y="-59" type="line"/>
      <point x="245" y="30"/>
      <point x="330" y="134"/>
      <point x="330" y="306" type="curve" smooth="yes"/>
      <point x="330" y="472"/>
      <point x="245" y="580"/>
      <point x="145" y="667" type="curve"/>
      <point x="201" y="719" type="line"/>
      <point x="309" y="638"/>
      <point x="445" y="504"/>
      <point x="445" y="300" type="curve" smooth="yes"/>
      <point x="445" y="107"/>
      <point x="309" y="-29"/>
    </contour>
  </outline>
</glyph>
<glyph name="asterisk" format="1">
  <advance width="600"/>
  <unicode hex="002A"/>
  <outline>
    <contour>
      <point x="256" y="296" type="line"/>
      <point x="278" y="461" type="line"/>
      <point x="147" y="360" type="line"/>
      <point x="104" y="435" type="line"/>
      <point x="257" y="498" type="line"/>
      <point x="103" y="560" type="line"/>
      <point x="147" y="637" type="line"/>
      <point x="278" y="535" type="line"/>
      <point x="256" y="700" type="line"/>
      <point x="342" y="700" type="line"/>
      <point x="322" y="535" type="line"/>
      <point x="454" y="637" type="line"/>
      <point x="497" y="561" type="line"/>
      <point x="343" y="498" type="line"/>
      <point x="497" y="435" type="line"/>
      <point x="454" y="359" type="line"/>
      <point x="322" y="460" type="line"/>
      <point x="342" y="296" type="line"/>
    </contour>
  </outline>
</glyph>
<glyph name="plus" format="1">
  <advance width="600"/>
  <unicode hex="002B"/>
  <outline>
    <contour>
      <point x="251" y="107" type="line"/>
      <point x="251" y="297" type="line"/>
      <point x="68" y="297" type="line"/>
      <point x="68" y="391" type="line"/>
      <point x="251" y="391" type="line"/>
      <point x="251" y="581" type="line"/>
      <point x="349" y="581" type="line"/>
      <point x="349" y="391" type="line"/>
      <point x="532" y="391" type="line"/>
      <point x="532" y="297" type="line"/>
      <point x="349" y="297" type="line"/>
      <point x="349" y="107" type="line"/>
    </contour>
  </outline>
</glyph>
<glyph name="comma" format="1">
  <advance width="600"/>
  <unicode hex="002C"/>
  <outline>
    <contour>
      <point x="215" y="-118" type="line"/>
      <point x="234" y="162" type="line"/>
      <point x="385" y="162" type="line"/>
      <point x="295" y="-118" type="line"/>
    </contour>
  </outline>
</glyph>
<glyph name="hyphen" format="1">
  <advance width="600"/>
  <unicode hex="002D"/>
  <unicode hex="2010"/>
  <unicode hex="2011"/>
  <outline>
    <contour>
      <point x="143" y="313" type="line"/>
      <point x="143" y="413" type="line"/>
      <point x="456" y="413" type="line"/>
      <point x="456" y="313" type="line"/>
    </contour>
  </outline>
</glyph>
<glyph name="period" format="1">
  <advance width="600"/>
  <unicode hex="002E"/>
  <outline>
    <contour>
      <point x="300" y="-11" type="curve" smooth="yes"/>
      <point x="247" y="-11"/>
      <point x="206" y="28"/>
      <point x="206" y="82" type="curve" smooth="yes"/>
      <point x="206" y="134"/>
      <point x="247" y="173"/>
      <point x="300" y="173" type="curve" smooth="yes"/>
      <point x="353" y="173"/>
      <point x="394" y="134"/>
      <point x="394" y="82" type="curve" smooth="yes"/>
      <point x="394" y="28"/>
      <point x="353" y="-11"/>
    </contour>
  </outline>
</glyph>
<glyph name="slash" format="1">
  <advance width="600"/>
  <unicode hex="002F"/>
  <outline>
    <contour>
      <point x="56" y="-90" type="line"/>
      <point x="445" y="790" type="line"/>
      <point x="544" y="790" type="line"/>
      <point x="155" y="-90" type="line"/>
    </contour>
  </outline>
</glyph>
<glyph name="zero" format="1">
  <advance width="600"/>
  <unicode hex="0030"/>
  <outline>
    <contour>
      <point x="300" y="-11" type="curve" smooth="yes"/>
      <point x="153" y="-11"/>
      <point x="65" y="115"/>
      <point x="65" y="350" type="curve" smooth="yes"/>
      <point x="65" y="585"/>
      <point x="154" y="711"/>
      <point x="300" y="711" type="curve" smooth="yes"/>
      <point x="447" y="711"/>
      <point x="535" y="585"/>
      <point x="535" y="350" type="curve" smooth="yes"/>
      <point x="535" y="115"/>
      <point x="447" y="-11"/>
    </contour>
    <contour>
      <point x="300" y="83" type="curve" smooth="yes"/>
      <point x="388" y="83"/>
      <point x="428" y="169"/>
      <point x="428" y="350" type="curve" smooth="yes"/>
      <point x="428" y="530"/>
      <point x="388" y="617"/>
      <point x="300" y="617" type="curve" smooth="yes"/>
      <point x="212" y="617"/>
      <point x="173" y="531"/>
      <point x="173" y="350" type="curve" smooth="yes"/>
      <point x="173" y="170"/>
      <point x="213" y="83"/>
    </contour>
  </outline>
</glyph>
<glyph name="one" format="1">
  <advance width="600"/>
  <unicode hex="0031"/>
  <outline>
    <contour>
      <point x="114" y="0" type="line"/>
      <point x="114" y="87" type="line"/>
      <point x="261" y="87" type="line"/>
      <point x="261" y="537" type="line"/>
      <point x="121" y="537" type="line"/>
      <point x="121" y="610" type="line"/>
      <point x="218" y="615"/>
      <point x="267" y="636"/>
      <point x="282" y="700" type="curve"/>
      <point x="367" y="700" type="line"/>
      <point x="367" y="87" type="line"/>
      <point x="504" y="87" type="line"/>
      <point x="504" y="0" type="line"/>
    </contour>
  </outline>
</glyph>
<glyph name="two" format="1">
  <advance width="600"/>
  <unicode hex="0032"/>
  <outline>
    <contour>
      <point x="74" y="0" type="line"/>
      <point x="80" y="195"/>
      <point x="155" y="278"/>
      <point x="283" y="373" type="curve" smooth="yes"/>
      <point x="372" y="440"/>
      <point x="395" y="471"/>
      <point x="395" y="523" type="curve" smooth="yes"/>
      <point x="395" y="584"/>
      <point x="360" y="619"/>
      <point x="293" y="619" type="curve" smooth="yes"/>
      <point x="231" y="619"/>
      <point x="193" y="594"/>
      <point x="149" y="543" type="curve"/>
      <point x="82" y="606" type="line"/>
      <point x="136" y="669"/>
      <point x="195" y="711"/>
      <point x="297" y="711" type="curve" smooth="yes"/>
      <point x="420" y="711"/>
      <point x="498" y="647"/>
      <point x="498" y="530" type="curve" smooth="yes"/>
      <point x="498" y="439"/>
      <point x="458" y="389"/>
      <point x="351" y="309" type="curve" smooth="yes"/>
      <point x="230" y="219"/>
      <point x="198" y="171"/>
      <point x="187" y="92" type="curve"/>
      <point x="503" y="92" type="line"/>
      <point x="503" y="0" type="line"/>
    </contour>
  </outline>
</glyph>
<glyph name="three" format="1">
  <advance width="600"/>
  <unicode hex="0033"/>
  <outline>
    <contour>
      <point x="277" y="-11" type="curve" smooth="yes"/>
      <point x="184" y="-11"/>
      <point x="111" y="35"/>
      <point x="64" y="105" type="curve"/>
      <point x="136" y="165" type="line"/>
      <point x="174" y="110"/>
      <point x="222" y="80"/>
      <point x="281" y="80" type="curve" smooth="yes"/>
      <point x="366" y="80"/>
      <point x="407" y="127"/>
      <point x="407" y="203" type="curve" smooth="yes"/>
      <point x="407" y="285"/>
      <point x="358" y="323"/>
      <point x="275" y="323" type="curve" smooth="yes"/>
      <point x="226" y="323" type="line"/>
      <point x="226" y="411" type="line"/>
      <point x="277" y="411" type="line" smooth="yes"/>
      <point x="350" y="411"/>
      <point x="385" y="451"/>
      <point x="385" y="521" type="curve" smooth="yes"/>
      <point x="385" y="579"/>
      <point x="353" y="621"/>
      <point x="278" y="621" type="curve" smooth="yes"/>
      <point x="225" y="621"/>
      <point x="185" y="595"/>
      <point x="149" y="548" type="curve"/>
      <point x="83" y="608" type="line"/>
      <point x="125" y="665"/>
      <point x="188" y="711"/>
      <point x="281" y="711" type="curve" smooth="yes"/>
      <point x="403" y="711"/>
      <point x="488" y="648"/>
      <point x="488" y="531" type="curve" smooth="yes"/>
      <point x="488" y="445"/>
      <point x="448" y="399"/>
      <point x="394" y="372" type="curve"/>
      <point x="455" y="357"/>
      <point x="510" y="311"/>
      <point x="510" y="205" type="curve" smooth="yes"/>
      <point x="510" y="67"/>
      <point x="421" y="-11"/>
    </contour>
  </outline>
</glyph>
<glyph name="four" format="1">
  <advance width="600"/>
  <unicode hex="0034"/>
  <outline>
    <contour>
      <point x="374" y="0" type="line"/>
      <point x="374" y="159" type="line"/>
      <point x="47" y="159" type="line"/>
      <point x="47" y="240" type="line"/>
      <point x="363" y="700" type="line"/>
      <point x="472" y="700" type="line"/>
      <point x="472" y="248" type="line"/>
      <point x="547" y="248" type="line"/>
      <point x="547" y="158" type="line"/>
      <point x="472" y="158" type="line"/>
      <point x="472" y="0" type="line"/>
    </contour>
    <contour>
      <point x="154" y="247" type="curve"/>
      <point x="155" y="247"/>
      <point x="194" y="247"/>
      <point x="205" y="247" type="curve" smooth="yes"/>
      <point x="375" y="247" type="line"/>
      <point x="375" y="512" type="line" smooth="yes"/>
      <point x="375" y="527"/>
      <point x="376" y="570"/>
      <point x="376" y="574" type="curve"/>
      <point x="362" y="554"/>
      <point x="336" y="513"/>
      <point x="308" y="471" type="curve" smooth="yes"/>
      <point x="225" y="347" type="line" smooth="yes"/>
      <point x="197" y="306"/>
      <point x="169" y="267"/>
    </contour>
  </outline>
</glyph>
<glyph name="five" format="1">
  <advance width="600"/>
  <unicode hex="0035"/>
  <outline>
    <contour>
      <point x="283" y="-11" type="curve" smooth="yes"/>
      <point x="196" y="-11"/>
      <point x="129" y="31"/>
      <point x="81" y="91" type="curve"/>
      <point x="147" y="158" type="line"/>
      <point x="188" y="111"/>
      <point x="230" y="79"/>
      <point x="288" y="79" type="curve" smooth="yes"/>
      <point x="375" y="79"/>
      <point x="410" y="136"/>
      <point x="410" y="232" type="curve" smooth="yes"/>
      <point x="410" y="319"/>
      <point x="375" y="370"/>
      <point x="299" y="370" type="curve" smooth="yes"/>
      <point x="247" y="370"/>
      <point x="219" y="349"/>
      <point x="189" y="316" type="curve"/>
      <point x="100" y="344" type="line"/>
      <point x="121" y="700" type="line"/>
      <point x="482" y="700" type="line"/>
      <point x="482" y="608" type="line"/>
      <point x="208" y="608" type="line"/>
      <point x="195" y="415" type="line"/>
      <point x="224" y="439"/>
      <point x="259" y="458"/>
      <point x="316" y="458" type="curve" smooth="yes"/>
      <point x="443" y="458"/>
      <point x="513" y="375"/>
      <point x="513" y="236" type="curve" smooth="yes"/>
      <point x="513" y="78"/>
      <point x="429" y="-11"/>
    </contour>
  </outline>
</glyph>
<glyph name="six" format="1">
  <advance width="600"/>
  <unicode hex="0036"/>
  <outline>
    <contour>
      <point x="303" y="-11" type="curve" smooth="yes"/>
      <point x="173" y="-11"/>
      <point x="78" y="77"/>
      <point x="78" y="263" type="curve" smooth="yes"/>
      <point x="78" y="461"/>
      <point x="176" y="673"/>
      <point x="434" y="712" type="curve"/>
      <point x="442" y="621" type="line"/>
      <point x="304" y="592"/>
      <point x="216" y="508"/>
      <point x="185" y="372" type="curve"/>
      <point x="218" y="411"/>
      <point x="264" y="435"/>
      <point x="333" y="435" type="curve" smooth="yes"/>
      <point x="447" y="435"/>
      <point x="530" y="357"/>
      <point x="530" y="218" type="curve" smooth="yes"/>
      <point x="530" y="75"/>
      <point x="437" y="-11"/>
    </contour>
    <contour>
      <point x="305" y="79" type="curve" smooth="yes"/>
      <point x="382" y="79"/>
      <point x="427" y="127"/>
      <point x="427" y="212" type="curve" smooth="yes"/>
      <point x="427" y="299"/>
      <point x="383" y="348"/>
      <point x="307" y="348" type="curve" smooth="yes"/>
      <point x="225" y="348"/>
      <point x="182" y="295"/>
      <point x="182" y="213" type="curve" smooth="yes"/>
      <point x="182" y="132"/>
      <point x="230" y="79"/>
    </contour>
  </outline>
</glyph>
<glyph name="seven" format="1">
  <advance width="600"/>
  <unicode hex="0037"/>
  <outline>
    <contour>
      <point x="184" y="0" type="line"/>
      <point x="189" y="244"/>
      <point x="265" y="442"/>
      <point x="394" y="607" type="curve"/>
      <point x="55" y="607" type="line"/>
      <point x="55" y="700" type="line"/>
      <point x="513" y="700" type="line"/>
      <point x="513" y="612" type="line"/>
      <point x="373" y="449"/>
      <point x="292" y="263"/>
      <point x="288" y="0" type="curve"/>
    </contour>
  </outline>
</glyph>
<glyph name="eight" format="1">
  <advance width="600"/>
  <unicode hex="0038"/>
  <outline>
    <contour>
      <point x="299" y="-11" type="curve" smooth="yes"/>
      <point x="155" y="-11"/>
      <point x="62" y="69"/>
      <point x="62" y="203" type="curve" smooth="yes"/>
      <point x="62" y="293"/>
      <point x="112" y="350"/>
      <point x="175" y="377" type="curve"/>
      <point x="124" y="402"/>
      <point x="86" y="451"/>
      <point x="86" y="523" type="curve" smooth="yes"/>
      <point x="86" y="631"/>
      <point x="167" y="711"/>
      <point x="301" y="711" type="curve" smooth="yes"/>
      <point x="436" y="711"/>
      <point x="514" y="631"/>
      <point x="514" y="524" type="curve" smooth="yes"/>
      <point x="514" y="453"/>
      <point x="478" y="407"/>
      <point x="425" y="379" type="curve"/>
      <point x="488" y="352"/>
      <point x="538" y="294"/>
      <point x="538" y="203" type="curve" smooth="yes"/>
      <point x="538" y="69"/>
      <point x="444" y="-11"/>
    </contour>
    <contour>
      <point x="301" y="416" type="curve" smooth="yes"/>
      <point x="372" y="416"/>
      <point x="414" y="464"/>
      <point x="414" y="521" type="curve" smooth="yes"/>
      <point x="414" y="576"/>
      <point x="381" y="625"/>
      <point x="299" y="625" type="curve" smooth="yes"/>
      <point x="218" y="625"/>
      <point x="187" y="578"/>
      <point x="187" y="523" type="curve" smooth="yes"/>
      <point x="187" y="464"/>
      <point x="228" y="416"/>
    </contour>
    <contour>
      <point x="301" y="77" type="curve" smooth="yes"/>
      <point x="391" y="77"/>
      <point x="436" y="127"/>
      <point x="436" y="204" type="curve" smooth="yes"/>
      <point x="436" y="278"/>
      <point x="386" y="332"/>
      <point x="299" y="332" type="curve" smooth="yes"/>
      <point x="212" y="332"/>
      <point x="165" y="279"/>
      <point x="165" y="205" type="curve" smooth="yes"/>
      <point x="165" y="129"/>
      <point x="210" y="77"/>
    </contour>
  </outline>
</glyph>
<glyph name="nine" format="1">
  <advance width="600"/>
  <unicode hex="0039"/>
  <outline>
    <contour>
      <point x="166" y="-12" type="curve"/>
      <point x="158" y="79" type="line"/>
      <point x="296" y="108"/>
      <point x="384" y="192"/>
      <point x="415" y="328" type="curve"/>
      <point x="382" y="289"/>
      <point x="336" y="265"/>
      <point x="268" y="265" type="curve" smooth="yes"/>
      <point x="152" y="265"/>
      <point x="69" y="343"/>
      <point x="69" y="482" type="curve" smooth="yes"/>
      <point x="69" y="625"/>
      <point x="163" y="711"/>
      <point x="297" y="711" type="curve" smooth="yes"/>
      <point x="427" y="711"/>
      <point x="522" y="623"/>
      <point x="522" y="437" type="curve" smooth="yes"/>
      <point x="522" y="239"/>
      <point x="424" y="27"/>
    </contour>
    <contour>
      <point x="293" y="352" type="curve" smooth="yes"/>
      <point x="375" y="352"/>
      <point x="418" y="405"/>
      <point x="418" y="487" type="curve" smooth="yes"/>
      <point x="418" y="568"/>
      <point x="370" y="621"/>
      <point x="295" y="621" type="curve" smooth="yes"/>
      <point x="218" y="621"/>
      <point x="173" y="573"/>
      <point x="173" y="488" type="curve" smooth="yes"/>
      <point x="173" y="401"/>
      <point x="217" y="352"/>
    </contour>
  </outline>
</glyph>
<glyph name="colon" format="1">
  <advance width="600"/>
  <unicode hex="003A"/>
  <outline>
    <contour>
      <point x="300" y="357" type="curve" smooth="yes"/>
      <point x="248" y="357"/>
      <point x="209" y="396"/>
      <point x="209" y="448" type="curve" smooth="yes"/>
      <point x="209" y="499"/>
      <point x="248" y="536"/>
      <point x="300" y="536" type="curve" smooth="yes"/>
      <point x="351" y="536"/>
      <point x="391" y="499"/>
      <point x="391" y="448" type="curve" smooth="yes"/>
      <point x="391" y="396"/>
      <point x="351" y="357"/>
    </contour>
    <contour>
      <point x="300" y="-11" type="curve" smooth="yes"/>
      <point x="248" y="-11"/>
      <point x="209" y="27"/>
      <point x="209" y="79" type="curve" smooth="yes"/>
      <point x="209" y="130"/>
      <point x="248" y="168"/>
      <point x="300" y="168" type="curve" smooth="yes"/>
      <point x="351" y="168"/>
      <point x="391" y="130"/>
      <point x="391" y="79" type="curve" smooth="yes"/>
      <point x="391" y="27"/>
      <point x="351" y="-11"/>
    </contour>
  </outline>
</glyph>
<glyph name="semicolon" format="1">
  <advance width="600"/>
  <unicode hex="003B"/>
  <outline>
    <contour>
      <point x="299" y="357" type="curve" smooth="yes"/>
      <point x="248" y="357"/>
      <point x="208" y="396"/>
      <point x="208" y="448" type="curve" smooth="yes"/>
      <point x="208" y="499"/>
      <point x="248" y="536"/>
      <point x="299" y="536" type="curve" smooth="yes"/>
      <point x="350" y="536"/>
      <point x="390" y="499"/>
      <point x="390" y="448" type="curve" smooth="yes"/>
      <point x="390" y="396"/>
      <point x="350" y="357"/>
    </contour>
    <contour>
      <point x="202" y="-118" type="line"/>
      <point x="221" y="162" type="line"/>
      <point x="373" y="162" type="line"/>
      <point x="282" y="-118" type="line"/>
    </contour>
  </outline>
</glyph>
<glyph name="less" format="1">
  <advance width="600"/>
  <unicode hex="003C"/>
  <outline>
    <contour>
      <point x="460" y="21" type="line"/>
      <point x="129" y="297" type="line"/>
      <point x="129" y="381" type="line"/>
      <point x="460" y="657" type="line"/>
      <point x="460" y="533" type="line"/>
      <point x="224" y="339" type="line"/>
      <point x="460" y="146" type="line"/>
    </contour>
  </outline>
</glyph>
<glyph name="equal" format="1">
  <advance width="600"/>
  <unicode hex="003D"/>
  <outline>
    <contour>
      <point x="92" y="407" type="line"/>
      <point x="92" y="500" type="line"/>
      <point x="508" y="500" type="line"/>
      <point x="508" y="407" type="line"/>
    </contour>
    <contour>
      <point x="92" y="180" type="line"/>
      <point x="92" y="273" type="line"/>
      <point x="508" y="273" type="line"/>
      <point x="508" y="180" type="line"/>
    </contour>
  </outline>
</glyph>
<glyph name="greater" format="1">
  <advance width="600"/>
  <unicode hex="003E"/>
  <outline>
    <contour>
      <point x="140" y="21" type="line"/>
      <point x="140" y="144" type="line"/>
      <point x="376" y="337" type="line"/>
      <point x="140" y="531" type="line"/>
      <point x="140" y="657" type="line"/>
      <point x="471" y="381" type="line"/>
      <point x="471" y="297" type="line"/>
    </contour>
  </outline>
</glyph>
<glyph name="question" format="1">
  <advance width="600"/>
  <unicode hex="003F"/>
  <outline>
    <contour>
      <point x="225" y="227" type="line"/>
      <point x="225" y="319"/>
      <point x="241" y="362"/>
      <point x="343" y="422" type="curve" smooth="yes"/>
      <point x="392" y="451"/>
      <point x="418" y="476"/>
      <point x="418" y="527" type="curve" smooth="yes"/>
      <point x="418" y="583"/>
      <point x="377" y="618"/>
      <point x="298" y="618" type="curve" smooth="yes"/>
      <point x="222" y="618"/>
      <point x="168" y="588"/>
      <point x="116" y="543" type="curve"/>
      <point x="57" y="619" type="line"/>
      <point x="117" y="672"/>
      <point x="197" y="711"/>
      <point x="301" y="711" type="curve" smooth="yes"/>
      <point x="436" y="711"/>
      <point x="525" y="649"/>
      <point x="525" y="536" type="curve" smooth="yes"/>
      <point x="525" y="442"/>
      <point x="478" y="401"/>
      <point x="404" y="358" type="curve" smooth="yes"/>
      <point x="340" y="320"/>
      <point x="327" y="291"/>
      <point x="327" y="227" type="curve"/>
    </contour>
    <contour>
      <point x="275" y="-11" type="curve" smooth="yes"/>
      <point x="231" y="-11"/>
      <point x="198" y="22"/>
      <point x="198" y="66" type="curve" smooth="yes"/>
      <point x="198" y="110"/>
      <point x="231" y="143"/>
      <point x="275" y="143" type="curve" smooth="yes"/>
      <point x="319" y="143"/>
      <point x="352" y="110"/>
      <point x="352" y="66" type="curve" smooth="yes"/>
      <point x="352" y="22"/>
      <point x="319" y="-11"/>
    </contour>
  </outline>
</glyph>
<glyph name="at" format="1">
  <advance width="600"/>
  <unicode hex="0040"/>
  <outline>
    <contour>
      <point x="300" y="-11" type="curve" smooth="yes"/>
      <point x="142" y="-11"/>
      <point x="41" y="129"/>
      <point x="41" y="350" type="curve" smooth="yes"/>
      <point x="41" y="570"/>
      <point x="141" y="711"/>
      <point x="300" y="711" type="curve" smooth="yes"/>
      <point x="461" y="711"/>
      <point x="559" y="561"/>
      <point x="559" y="360" type="curve" smooth="yes"/>
      <point x="559" y="205"/>
      <point x="519" y="153"/>
      <point x="450" y="153" type="curve" smooth="yes"/>
      <point x="411" y="153"/>
      <point x="386" y="170"/>
      <point x="371" y="196" type="curve"/>
      <point x="344" y="169"/>
      <point x="319" y="152"/>
      <point x="278" y="152" type="curve" smooth="yes"/>
      <point x="216" y="152"/>
      <point x="176" y="197"/>
      <point x="176" y="285" type="curve" smooth="yes"/>
      <point x="176" y="371"/>
      <point x="220" y="415"/>
      <point x="285" y="415" type="curve" smooth="yes"/>
      <point x="314" y="415"/>
      <point x="332" y="408"/>
      <point x="349" y="397" type="curve"/>
      <point x="349" y="452" type="line" smooth="yes"/>
      <point x="349" y="489"/>
      <point x="335" y="505"/>
      <point x="295" y="505" type="curve" smooth="yes"/>
      <point x="272" y="505"/>
      <point x="250" y="497"/>
      <point x="224" y="478" type="curve"/>
      <point x="198" y="523" type="line"/>
      <point x="230" y="548"/>
      <point x="265" y="562"/>
      <point x="304" y="562" type="curve" smooth="yes"/>
      <point x="370" y="562"/>
      <point x="407" y="534"/>
      <point x="407" y="457" type="curve" smooth="yes"/>
      <point x="407" y="266" type="line" smooth="yes"/>
      <point x="407" y="225"/>
      <point x="420" y="202"/>
      <point x="453" y="202" type="curve" smooth="yes"/>
      <point x="490" y="202"/>
      <point x="506" y="241"/>
      <point x="506" y="360" type="curve" smooth="yes"/>
      <point x="506" y="550"/>
      <point x="425" y="662"/>
      <point x="300" y="662" type="curve" smooth="yes"/>
      <point x="168" y="662"/>
      <point x="93" y="544"/>
      <point x="93" y="351" type="curve" smooth="yes"/>
      <point x="93" y="157"/>
      <point x="169" y="38"/>
      <point x="302" y="38" type="curve" smooth="yes"/>
      <point x="338" y="38"/>
      <point x="371" y="49"/>
      <point x="400" y="68" type="curve"/>
      <point x="421" y="25" type="line"/>
      <point x="383" y="2"/>
      <point x="345" y="-11"/>
    </contour>
    <contour>
      <point x="289" y="208" type="curve" smooth="yes"/>
      <point x="313" y="208"/>
      <point x="335" y="221"/>
      <point x="349" y="239" type="curve"/>
      <point x="349" y="346" type="line"/>
      <point x="334" y="355"/>
      <point x="317" y="362"/>
      <point x="291" y="362" type="curve" smooth="yes"/>
      <point x="255" y="362"/>
      <point x="237" y="335"/>
      <point x="237" y="286" type="curve" smooth="yes"/>
      <point x="237" y="235"/>
      <point x="253" y="208"/>
    </contour>
  </outline>
</glyph>
<glyph name="A" format="1">
  <advance width="600"/>
  <unicode hex="0041"/>
  <outline>
    <contour>
      <point x="52" y="0" type="line"/>
      <point x="245" y="700" type="line"/>
      <point x="356" y="700" type="line"/>
      <point x="549" y="0" type="line"/>
      <point x="441" y="0" type="line"/>
      <point x="400" y="162" type="line"/>
      <point x="198" y="162" type="line"/>
      <point x="156" y="0" type="line"/>
    </contour>
    <contour>
      <point x="219" y="253" type="line"/>
      <point x="378" y="253" type="line"/>
      <point x="339" y="399" type="line" smooth="yes"/>
      <point x="320" y="471"/>
      <point x="307" y="547"/>
      <point x="298" y="598" type="curve"/>
      <point x="291" y="547"/>
      <point x="278" y="471"/>
      <point x="258" y="397" type="curve" smooth="yes"/>
    </contour>
  </outline>
</glyph>
<glyph name="B" format="1">
  <advance width="600"/>
  <unicode hex="0042"/>
  <outline>
    <contour>
      <point x="90" y="0" type="line"/>
      <point x="90" y="700" type="line"/>
      <point x="324" y="700" type="line" smooth="yes"/>
      <point x="444" y="700"/>
      <point x="515" y="639"/>
      <point x="515" y="521" type="curve" smooth="yes"/>
      <point x="515" y="442"/>
      <point x="475" y="400"/>
      <point x="423" y="377" type="curve"/>
      <point x="482" y="356"/>
      <point x="537" y="309"/>
      <point x="537" y="208" type="curve" smooth="yes"/>
      <point x="537" y="69"/>
      <point x="460" y="0"/>
      <point x="321" y="0" type="curve" smooth="yes"/>
    </contour>
    <contour>
      <point x="195" y="415" type="line"/>
      <point x="314" y="415" type="line" smooth="yes"/>
      <point x="382" y="415"/>
      <point x="410" y="457"/>
      <point x="410" y="515" type="curve" smooth="yes"/>
      <point x="410" y="576"/>
      <point x="380" y="610"/>
      <point x="317" y="610" type="curve" smooth="yes"/>
      <point x="195" y="610" type="line"/>
    </contour>
    <contour>
      <point x="195" y="90" type="line"/>
      <point x="322" y="90" type="line" smooth="yes"/>
      <point x="400" y="90"/>
      <point x="432" y="130"/>
      <point x="432" y="206" type="curve" smooth="yes"/>
      <point x="432" y="285"/>
      <point x="390" y="327"/>
      <point x="317" y="327" type="curve" smooth="yes"/>
      <point x="195" y="327" type="line"/>
    </contour>
  </outline>
</glyph>
<glyph name="C" format="1">
  <advance width="600"/>
  <unicode hex="0043"/>
  <outline>
    <contour>
      <point x="317" y="-11" type="curve" smooth="yes"/>
      <point x="155" y="-11"/>
      <point x="64" y="126"/>
      <point x="64" y="350" type="curve" smooth="yes"/>
      <point x="64" y="576"/>
      <point x="162" y="711"/>
      <point x="319" y="711" type="curve" smooth="yes"/>
      <point x="430" y="711"/>
      <point x="490" y="657"/>
      <point x="532" y="558" type="curve"/>
      <point x="440" y="515" type="line"/>
      <point x="407" y="587"/>
      <point x="377" y="617"/>
      <point x="318" y="617" type="curve" smooth="yes"/>
      <point x="227" y="617"/>
      <point x="172" y="532"/>
      <point x="172" y="350" type="curve" smooth="yes"/>
      <point x="172" y="169"/>
      <point x="228" y="83"/>
      <point x="320" y="83" type="curve" smooth="yes"/>
      <point x="381" y="83"/>
      <point x="413" y="117"/>
      <point x="448" y="186" type="curve"/>
      <point x="535" y="139" type="line"/>
      <point x="493" y="51"/>
      <point x="429" y="-11"/>
    </contour>
  </outline>
</glyph>
<glyph name="D" format="1">
  <advance width="600"/>
  <unicode hex="0044"/>
  <outline>
    <contour>
      <point x="87" y="0" type="line"/>
      <point x="87" y="700" type="line"/>
      <point x="265" y="700" type="line" smooth="yes"/>
      <point x="436" y="700"/>
      <point x="538" y="590"/>
      <point x="538" y="355" type="curve" smooth="yes"/>
      <point x="538" y="105"/>
      <point x="429" y="0"/>
      <point x="252" y="0" type="curve" smooth="yes"/>
    </contour>
    <contour>
      <point x="195" y="92" type="line"/>
      <point x="260" y="92" type="line" smooth="yes"/>
      <point x="369" y="92"/>
      <point x="430" y="157"/>
      <point x="430" y="352" type="curve" smooth="yes"/>
      <point x="430" y="531"/>
      <point x="376" y="607"/>
      <point x="260" y="607" type="curve" smooth="yes"/>
      <point x="195" y="607" type="line"/>
    </contour>
  </outline>
</glyph>
<glyph name="E" format="1">
  <advance width="600"/>
  <unicode hex="0045"/>
  <outline>
    <contour>
      <point x="97" y="0" type="line"/>
      <point x="97" y="700" type="line"/>
      <point x="520" y="700" type="line"/>
      <point x="520" y="605" type="line"/>
      <point x="204" y="605" type="line"/>
      <point x="204" y="418" type="line"/>
      <point x="398" y="418" type="line"/>
      <point x="398" y="323" type="line"/>
      <point x="204" y="323" type="line"/>
      <point x="204" y="95" type="line"/>
      <point x="532" y="95" type="line"/>
      <point x="532" y="0" type="line"/>
    </contour>
  </outline>
</glyph>
<glyph name="F" format="1">
  <advance width="600"/>
  <unicode hex="0046"/>
  <outline>
    <contour>
      <point x="101" y="0" type="line"/>
      <point x="101" y="700" type="line"/>
      <point x="542" y="700" type="line"/>
      <point x="542" y="605" type="line"/>
      <point x="208" y="605" type="line"/>
      <point x="208" y="407" type="line"/>
      <point x="411" y="407" type="line"/>
      <point x="411" y="313" type="line"/>
      <point x="208" y="313" type="line"/>
      <point x="208" y="0" type="line"/>
    </contour>
  </outline>
</glyph>
<glyph name="G" format="1">
  <advance width="600"/>
  <unicode hex="0047"/>
  <outline>
    <contour>
      <point x="309" y="-11" type="curve" smooth="yes"/>
      <point x="156" y="-11"/>
      <point x="62" y="127"/>
      <point x="62" y="350" type="curve" smooth="yes"/>
      <point x="62" y="569"/>
      <point x="155" y="711"/>
      <point x="311" y="711" type="curve" smooth="yes"/>
      <point x="422" y="711"/>
      <point x="479" y="654"/>
      <point x="517" y="557" type="curve"/>
      <point x="423" y="516" type="line"/>
      <point x="394" y="588"/>
      <point x="365" y="618"/>
      <point x="309" y="618" type="curve" smooth="yes"/>
      <point x="221" y="618"/>
      <point x="170" y="524"/>
      <point x="170" y="350" type="curve" smooth="yes"/>
      <point x="170" y="171"/>
      <point x="223" y="81"/>
      <point x="313" y="81" type="curve" smooth="yes"/>
      <point x="397" y="81"/>
      <point x="435" y="136"/>
      <point x="435" y="243" type="curve" smooth="yes"/>
      <point x="435" y="272" type="line"/>
      <point x="335" y="272" type="line"/>
      <point x="335" y="360" type="line"/>
      <point x="537" y="360" type="line"/>
      <point x="537" y="262" type="line" smooth="yes"/>
      <point x="537" y="90"/>
      <point x="455" y="-11"/>
    </contour>
  </outline>
</glyph>
<glyph name="H" format="1">
  <advance width="600"/>
  <unicode hex="0048"/>
  <outline>
    <contour>
      <point x="81" y="0" type="line"/>
      <point x="81" y="700" type="line"/>
      <point x="189" y="700" type="line"/>
      <point x="189" y="417" type="line"/>
      <point x="411" y="417" type="line"/>
      <point x="411" y="700" type="line"/>
      <point x="519" y="700" type="line"/>
      <point x="519" y="0" type="line"/>
      <point x="411" y="0" type="line"/>
      <point x="411" y="319" type="line"/>
      <point x="189" y="319" type="line"/>
      <point x="189" y="0" type="line"/>
    </contour>
  </outline>
</glyph>
<glyph name="I" format="1">
  <advance width="600"/>
  <unicode hex="0049"/>
  <outline>
    <contour>
      <point x="140" y="0" type="line"/>
      <point x="140" y="85" type="line"/>
      <point x="246" y="85" type="line"/>
      <point x="246" y="615" type="line"/>
      <point x="140" y="615" type="line"/>
      <point x="140" y="700" type="line"/>
      <point x="459" y="700" type="line"/>
      <point x="459" y="615" type="line"/>
      <point x="353" y="615" type="line"/>
      <point x="353" y="85" type="line"/>
      <point x="459" y="85" type="line"/>
      <point x="459" y="0" type="line"/>
    </contour>
  </outline>
</glyph>
<glyph name="J" format="1">
  <advance width="600"/>
  <unicode hex="004A"/>
  <outline>
    <contour>
      <point x="270" y="-11" type="curve" smooth="yes"/>
      <point x="142" y="-11"/>
      <point x="77" y="60"/>
      <point x="44" y="175" type="curve"/>
      <point x="144" y="205" type="line"/>
      <point x="168" y="128"/>
      <point x="201" y="84"/>
      <point x="273" y="84" type="curve" smooth="yes"/>
      <point x="362" y="84"/>
      <point x="399" y="137"/>
      <point x="399" y="255" type="curve" smooth="yes"/>
      <point x="399" y="700" type="line"/>
      <point x="507" y="700" type="line"/>
      <point x="507" y="258" type="line" smooth="yes"/>
      <point x="507" y="81"/>
      <point x="429" y="-11"/>
    </contour>
  </outline>
</glyph>
<glyph name="K" format="1">
  <advance width="600"/>
  <unicode hex="004B"/>
  <outline>
    <contour>
      <point x="87" y="0" type="line"/>
      <point x="87" y="700" type="line"/>
      <point x="194" y="700" type="line"/>
      <point x="194" y="485" type="line" smooth="yes"/>
      <point x="194" y="437"/>
      <point x="194" y="387"/>
      <point x="192" y="357" type="curve"/>
      <point x="214" y="396"/>
      <point x="247" y="458"/>
      <point x="284" y="511" type="curve" smooth="yes"/>
      <point x="416" y="700" type="line"/>
      <point x="532" y="700" type="line"/>
      <point x="354" y="439" type="line"/>
      <point x="554" y="0" type="line"/>
      <point x="436" y="0" type="line"/>
      <point x="280" y="344" type="line"/>
      <point x="194" y="222" type="line"/>
      <point x="194" y="0" type="line"/>
    </contour>
  </outline>
</glyph>
<glyph name="L" format="1">
  <advance width="600"/>
  <unicode hex="004C"/>
  <outline>
    <contour>
      <point x="100" y="0" type="line"/>
      <point x="100" y="700" type="line"/>
      <point x="207" y="700" type="line"/>
      <point x="207" y="95" type="line"/>
      <point x="530" y="95" type="line"/>
      <point x="530" y="0" type="line"/>
    </contour>
  </outline>
</glyph>
<glyph name="M" format="1">
  <advance width="600"/>
  <unicode hex="004D"/>
  <outline>
    <contour>
      <point x="300" y="-11" type="line"/>
      <point x="203" y="321" type="line" smooth="yes"/>
      <point x="184" y="386"/>
      <point x="170" y="438"/>
      <point x="161" y="485" type="curve"/>
      <point x="162" y="444"/>
      <point x="163" y="384"/>
      <point x="163" y="329" type="curve" smooth="yes"/>
      <point x="163" y="0" type="line"/>
      <point x="72" y="0" type="line"/>
      <point x="72" y="700" type="line"/>
      <point x="173" y="700" type="line"/>
      <point x="259" y="400" type="line" smooth="yes"/>
      <point x="280" y="327"/>
      <point x="292" y="276"/>
      <point x="301" y="226" type="curve"/>
      <point x="310" y="276"/>
      <point x="323" y="328"/>
      <point x="343" y="400" type="curve" smooth="yes"/>
      <point x="428" y="700" type="line"/>
      <point x="528" y="700" type="line"/>
      <point x="528" y="0" type="line"/>
      <point x="438" y="0" type="line"/>
      <point x="438" y="329" type="line" smooth="yes"/>
      <point x="438" y="382"/>
      <point x="438" y="444"/>
      <point x="440" y="485" type="curve"/>
      <point x="430" y="438"/>
      <point x="417" y="388"/>
      <point x="397" y="321" type="curve" smooth="yes"/>
    </contour>
  </outline>
</glyph>
<glyph name="N" format="1">
  <advance width="600"/>
  <unicode hex="004E"/>
  <outline>
    <contour>
      <point x="85" y="0" type="line"/>
      <point x="85" y="700" type="line"/>
      <point x="180" y="700" type="line"/>
      <point x="348" y="363" type="line" smooth="yes"/>
      <point x="379" y="302"/>
      <point x="409" y="233"/>
      <point x="423" y="198" type="curve"/>
      <point x="421" y="223"/>
      <point x="420" y="293"/>
      <point x="420" y="338" type="curve" smooth="yes"/>
      <point x="420" y="700" type="line"/>
      <point x="515" y="700" type="line"/>
      <point x="515" y="0" type="line"/>
      <point x="429" y="0" type="line"/>
      <point x="251" y="357" type="line" smooth="yes"/>
      <point x="222" y="415"/>
      <point x="192" y="482"/>
      <point x="177" y="519" type="curve"/>
      <point x="179" y="495"/>
      <point x="180" y="425"/>
      <point x="180" y="381" type="curve" smooth="yes"/>
      <point x="180" y="0" type="line"/>
    </contour>
  </outline>
</glyph>
<glyph name="O" format="1">
  <advance width="600"/>
  <unicode hex="004F"/>
  <outline>
    <contour>
      <point x="299" y="-11" type="curve" smooth="yes"/>
      <point x="150" y="-11"/>
      <point x="61" y="120"/>
      <point x="61" y="350" type="curve" smooth="yes"/>
      <point x="61" y="578"/>
      <point x="152" y="711"/>
      <point x="300" y="711" type="curve" smooth="yes"/>
      <point x="449" y="711"/>
      <point x="539" y="580"/>
      <point x="539" y="350" type="curve" smooth="yes"/>
      <point x="539" y="122"/>
      <point x="448" y="-11"/>
    </contour>
    <contour>
      <point x="301" y="84" type="curve" smooth="yes"/>
      <point x="384" y="84"/>
      <point x="430" y="162"/>
      <point x="430" y="350" type="curve" smooth="yes"/>
      <point x="430" y="537"/>
      <point x="382" y="616"/>
      <point x="298" y="616" type="curve" smooth="yes"/>
      <point x="215" y="616"/>
      <point x="170" y="538"/>
      <point x="170" y="350" type="curve" smooth="yes"/>
      <point x="170" y="163"/>
      <point x="218" y="84"/>
    </contour>
  </outline>
</glyph>
<glyph name="P" format="1">
  <advance width="600"/>
  <unicode hex="0050"/>
  <outline>
    <contour>
      <point x="91" y="0" type="line"/>
      <point x="91" y="700" type="line"/>
      <point x="328" y="700" type="line" smooth="yes"/>
      <point x="453" y="700"/>
      <point x="545" y="637"/>
      <point x="545" y="490" type="curve" smooth="yes"/>
      <point x="545" y="342"/>
      <point x="449" y="272"/>
      <point x="316" y="272" type="curve" smooth="yes"/>
      <point x="199" y="272" type="line"/>
      <point x="199" y="0" type="line"/>
    </contour>
    <contour>
      <point x="199" y="364" type="line"/>
      <point x="316" y="364" type="line" smooth="yes"/>
      <point x="400" y="364"/>
      <point x="437" y="403"/>
      <point x="437" y="487" type="curve" smooth="yes"/>
      <point x="437" y="568"/>
      <point x="400" y="608"/>
      <point x="323" y="608" type="curve" smooth="yes"/>
      <point x="199" y="608" type="line"/>
    </contour>
  </outline>
</glyph>
<glyph name="Q" format="1">
  <advance width="600"/>
  <unicode hex="0051"/>
  <outline>
    <contour>
      <point x="462" y="-64" type="line"/>
      <point x="401" y="14" type="line"/>
      <point x="371" y="-3"/>
      <point x="337" y="-11"/>
      <point x="299" y="-11" type="curve" smooth="yes"/>
      <point x="150" y="-11"/>
      <point x="61" y="120"/>
      <point x="61" y="350" type="curve" smooth="yes"/>
      <point x="61" y="578"/>
      <point x="152" y="711"/>
      <point x="300" y="711" type="curve" smooth="yes"/>
      <point x="449" y="711"/>
      <point x="539" y="580"/>
      <point x="539" y="350" type="curve" smooth="yes"/>
      <point x="539" y="227"/>
      <point x="512" y="130"/>
      <point x="463" y="69" type="curve"/>
      <point x="526" y="-10" type="line"/>
    </contour>
    <contour>
      <point x="301" y="80" type="curve" smooth="yes"/>
      <point x="315" y="80"/>
      <point x="328" y="83"/>
      <point x="340" y="87" type="curve"/>
      <point x="273" y="174" type="line"/>
      <point x="336" y="228" type="line"/>
      <point x="396" y="150" type="line"/>
      <point x="418" y="191"/>
      <point x="431" y="258"/>
      <point x="431" y="350" type="curve" smooth="yes"/>
      <point x="431" y="537"/>
      <point x="382" y="616"/>
      <point x="298" y="616" type="curve" smooth="yes"/>
      <point x="215" y="616"/>
      <point x="169" y="538"/>
      <point x="169" y="350" type="curve" smooth="yes"/>
      <point x="169" y="163"/>
      <point x="219" y="80"/>
    </contour>
  </outline>
</glyph>
<glyph name="R" format="1">
  <advance width="600"/>
  <unicode hex="0052"/>
  <outline>
    <contour>
      <point x="87" y="0" type="line"/>
      <point x="87" y="700" type="line"/>
      <point x="324" y="700" type="line" smooth="yes"/>
      <point x="443" y="700"/>
      <point x="531" y="639"/>
      <point x="531" y="500" type="curve" smooth="yes"/>
      <point x="531" y="402"/>
      <point x="482" y="339"/>
      <point x="406" y="312" type="curve"/>
      <point x="532" y="0" type="line"/>
      <point x="417" y="0" type="line"/>
      <point x="301" y="293" type="line"/>
      <point x="195" y="293" type="line"/>
      <point x="195" y="0" type="line"/>
    </contour>
    <contour>
      <point x="195" y="382" type="line"/>
      <point x="313" y="382" type="line" smooth="yes"/>
      <point x="390" y="382"/>
      <point x="426" y="419"/>
      <point x="426" y="497" type="curve" smooth="yes"/>
      <point x="426" y="572"/>
      <point x="391" y="609"/>
      <point x="318" y="609" type="curve" smooth="yes"/>
      <point x="195" y="609" type="line"/>
    </contour>
  </outline>
</glyph>
<glyph name="S" format="1">
  <advance width="600"/>
  <unicode hex="0053"/>
  <outline>
    <contour>
      <point x="296" y="-11" type="curve" smooth="yes"/>
      <point x="197" y="-11"/>
      <point x="118" y="32"/>
      <point x="64" y="95" type="curve"/>
      <point x="133" y="168" type="line"/>
      <point x="181" y="115"/>
      <point x="236" y="83"/>
      <point x="299" y="83" type="curve" smooth="yes"/>
      <point x="374" y="83"/>
      <point x="418" y="119"/>
      <point x="418" y="179" type="curve" smooth="yes"/>
      <point x="418" y="236"/>
      <point x="392" y="269"/>
      <point x="278" y="314" type="curve" smooth="yes"/>
      <point x="138" y="369"/>
      <point x="82" y="420"/>
      <point x="82" y="526" type="curve" smooth="yes"/>
      <point x="82" y="637"/>
      <point x="168" y="711"/>
      <point x="298" y="711" type="curve" smooth="yes"/>
      <point x="398" y="711"/>
      <point x="457" y="678"/>
      <point x="513" y="623" type="curve"/>
      <point x="444" y="546" type="line"/>
      <point x="395" y="593"/>
      <point x="356" y="617"/>
      <point x="293" y="617" type="curve" smooth="yes"/>
      <point x="219" y="617"/>
      <point x="188" y="579"/>
      <point x="188" y="533" type="curve" smooth="yes"/>
      <point x="188" y="480"/>
      <point x="211" y="453"/>
      <point x="325" y="408" type="curve" smooth="yes"/>
      <point x="470" y="350"/>
      <point x="525" y="295"/>
      <point x="525" y="186" type="curve" smooth="yes"/>
      <point x="525" y="68"/>
      <point x="436" y="-11"/>
    </contour>
  </outline>
</glyph>
<glyph name="U" format="1">
  <advance width="600"/>
  <unicode hex="0055"/>
  <outline>
    <contour>
      <point x="299" y="-11" type="curve" smooth="yes"/>
      <point x="163" y="-11"/>
      <point x="81" y="75"/>
      <point x="81" y="239" type="curve" smooth="yes"/>
      <point x="81" y="700" type="line"/>
      <point x="188" y="700" type="line"/>
      <point x="188" y="239" type="line" smooth="yes"/>
      <point x="188" y="136"/>
      <point x="224" y="85"/>
      <point x="302" y="85" type="curve" smooth="yes"/>
      <point x="380" y="85"/>
      <point x="412" y="135"/>
      <point x="412" y="238" type="curve" smooth="yes"/>
      <point x="412" y="700" type="line"/>
      <point x="519" y="700" type="line"/>
      <point x="519" y="240" type="line" smooth="yes"/>
      <point x="519" y="76"/>
      <point x="438" y="-11"/>
    </contour>
  </outline>
</glyph>
<glyph name="V" format="1">
  <advance width="600"/>
  <unicode hex="0056"/>
  <outline>
    <contour>
      <point x="248" y="0" type="line"/>
      <point x="54" y="700" type="line"/>
      <point x="165" y="700" type="line"/>
      <point x="262" y="324" type="line" smooth="yes"/>
      <point x="279" y="259"/>
      <point x="295" y="165"/>
      <point x="302" y="116" type="curve"/>
      <point x="310" y="165"/>
      <point x="325" y="259"/>
      <point x="342" y="324" type="curve" smooth="yes"/>
      <point x="438" y="700" type="line"/>
      <point x="546" y="700" type="line"/>
      <point x="352" y="0" type="line"/>
    </contour>
  </outline>
</glyph>
<glyph name="W" format="1">
  <advance width="600"/>
  <unicode hex="0057"/>
  <outline>
    <contour>
      <point x="126" y="0" type="line"/>
      <point x="26" y="700" type="line"/>
      <point x="124" y="700" type="line"/>
      <point x="166" y="382" type="line" smooth="yes"/>
      <point x="174" y="320"/>
      <point x="181" y="209"/>
      <point x="184" y="153" type="curve"/>
      <point x="188" y="209"/>
      <point x="197" y="320"/>
      <point x="207" y="382" type="curve" smooth="yes"/>
      <point x="258" y="700" type="line"/>
      <point x="343" y="700" type="line"/>
      <point x="394" y="382" type="line" smooth="yes"/>
      <point x="404" y="319"/>
      <point x="413" y="209"/>
      <point x="418" y="153" type="curve"/>
      <point x="421" y="209"/>
      <point x="427" y="320"/>
      <point x="435" y="382" type="curve" smooth="yes"/>
      <point x="476" y="700" type="line"/>
      <point x="575" y="700" type="line"/>
      <point x="474" y="0" type="line"/>
      <point x="377" y="0" type="line"/>
      <point x="333" y="264" type="line" smooth="yes"/>
      <point x="318" y="352"/>
      <point x="305" y="471"/>
      <point x="299" y="539" type="curve"/>
      <point x="294" y="471"/>
      <point x="279" y="350"/>
      <point x="265" y="264" type="curve" smooth="yes"/>
      <point x="221" y="0" type="line"/>
    </contour>
  </outline>
</glyph>
<glyph name="X" format="1">
  <advance width="600"/>
  <unicode hex="0058"/>
  <outline>
    <contour>
      <point x="57" y="0" type="line"/>
      <point x="242" y="363" type="line"/>
      <point x="69" y="700" type="line"/>
      <point x="185" y="700" type="line"/>
      <point x="257" y="559" type="line" smooth="yes"/>
      <point x="281" y="512"/>
      <point x="293" y="477"/>
      <point x="304" y="447" type="curve"/>
      <point x="315" y="478"/>
      <point x="328" y="512"/>
      <point x="351" y="559" type="curve" smooth="yes"/>
      <point x="420" y="700" type="line"/>
      <point x="531" y="700" type="line"/>
      <point x="358" y="362" type="line"/>
      <point x="543" y="0" type="line"/>
      <point x="427" y="0" type="line"/>
      <point x="346" y="162" type="line" smooth="yes"/>
      <point x="322" y="210"/>
      <point x="307" y="249"/>
      <point x="296" y="278" type="curve"/>
      <point x="286" y="249"/>
      <point x="271" y="210"/>
      <point x="247" y="162" type="curve" smooth="yes"/>
      <point x="167" y="0" type="line"/>
    </contour>
  </outline>
</glyph>
<glyph name="Y" format="1">
  <advance width="600"/>
  <unicode hex="0059"/>
  <outline>
    <contour>
      <point x="247" y="0" type="line"/>
      <point x="247" y="279" type="line"/>
      <point x="47" y="700" type="line"/>
      <point x="164" y="700" type="line"/>
      <point x="239" y="533" type="line" smooth="yes"/>
      <point x="266" y="473"/>
      <point x="288" y="408"/>
      <point x="302" y="364" type="curve"/>
      <point x="317" y="409"/>
      <point x="340" y="475"/>
      <point x="366" y="533" type="curve" smooth="yes"/>
      <point x="441" y="700" type="line"/>
      <point x="552" y="700" type="line"/>
      <point x="354" y="281" type="line"/>
      <point x="354" y="0" type="line"/>
    </contour>
  </outline>
</glyph>
<glyph name="Z" format="1">
  <advance width="600"/>
  <unicode hex="005A"/>
  <outline>
    <contour>
      <point x="74" y="0" type="line"/>
      <point x="74" y="85" type="line"/>
      <point x="334" y="501" type="line" smooth="yes"/>
      <point x="364" y="549"/>
      <point x="384" y="579"/>
      <point x="406" y="609" type="curve"/>
      <point x="394" y="608"/>
      <point x="332" y="608"/>
      <point x="313" y="608" type="curve" smooth="yes"/>
      <point x="92" y="608" type="line"/>
      <point x="92" y="700" type="line"/>
      <point x="520" y="700" type="line"/>
      <point x="520" y="615" type="line"/>
      <point x="260" y="199" type="line" smooth="yes"/>
      <point x="233" y="156"/>
      <point x="209" y="121"/>
      <point x="187" y="91" type="curve"/>
      <point x="200" y="92"/>
      <point x="259" y="92"/>
      <point x="277" y="92" type="curve" smooth="yes"/>
      <point x="521" y="92" type="line"/>
      <point x="521" y="0" type="line"/>
    </contour>
  </outline>
</glyph>
<glyph name="bracketleft" format="1">
  <advance width="600"/>
  <unicode hex="005B"/>
  <outline>
    <contour>
      <point x="192" y="-120" type="line"/>
      <point x="192" y="700" type="line"/>
      <point x="439" y="700" type="line"/>
      <point x="439" y="615" type="line"/>
      <point x="296" y="615" type="line"/>
      <point x="296" y="-35" type="line"/>
      <point x="439" y="-35" type="line"/>
      <point x="439" y="-120" type="line"/>
    </contour>
  </outline>
</glyph>
<glyph name="backslash" format="1">
  <advance width="600"/>
  <unicode hex="005C"/>
  <outline>
    <contour>
      <point x="445" y="-90" type="line"/>
      <point x="56" y="790" type="line"/>
      <point x="155" y="790" type="line"/>
      <point x="544" y="-90" type="line"/>
    </contour>
  </outline>
</glyph>
<glyph name="bracketright" format="1">
  <advance width="600"/>
  <unicode hex="005D"/>
  <outline>
    <contour>
      <point x="161" y="-120" type="line"/>
      <point x="161" y="-35" type="line"/>
      <point x="304" y="-35" type="line"/>
      <point x="304" y="615" type="line"/>
      <point x="161" y="615" type="line"/>
      <point x="161" y="700" type="line"/>
      <point x="408" y="700" type="line"/>
      <point x="408" y="-120" type="line"/>
    </contour>
  </outline>
</glyph>
<glyph name="asciicircum" format="1">
  <advance width="600"/>
  <unicode hex="005E"/>
  <outline>
    <contour>
      <point x="58" y="377" type="line"/>
      <point x="257" y="700" type="line"/>
      <point x="343" y="700" type="line"/>
      <point x="542" y="377" type="line"/>
      <point x="428" y="377" type="line"/>
      <point x="299" y="596" type="line"/>
      <point x="170" y="377" type="line"/>
    </contour>
  </outline>
</glyph>
<glyph name="underscore" format="1">
  <advance width="600"/>
  <unicode hex="005F"/>
  <outline>
    <contour>
      <point x="0" y="-166" type="line"/>
      <point x="0" y="-80" type="line"/>
      <point x="600" y="-80" type="line"/>
      <point x="600" y="-166" type="line"/>
    </contour>
  </outline>
</glyph>
<glyph name="grave" format="1">
  <advance width="600"/>
  <unicode hex="0060"/>
  <outline>
    <contour>
      <point x="283" y="595" type="line"/>
      <point x="130" y="755" type="line"/>
      <point x="269" y="755" type="line"/>
      <point x="363" y="595" type="line"/>
    </contour>
  </outline>
</glyph>
<glyph name="a" format="1">
  <advance width="600"/>
  <unicode hex="0061"/>
  <outline>
    <contour>
      <point x="244" y="-11" type="curve" smooth="yes"/>
      <point x="154" y="-11"/>
      <point x="72" y="37"/>
      <point x="72" y="160" type="curve" smooth="yes"/>
      <point x="72" y="277"/>
      <point x="165" y="330"/>
      <point x="272" y="330" type="curve" smooth="yes"/>
      <point x="324" y="330"/>
      <point x="367" y="318"/>
      <point x="398" y="302" type="curve"/>
      <point x="398" y="352" type="line" smooth="yes"/>
      <point x="398" y="421"/>
      <point x="364" y="453"/>
      <point x="295" y="453" type="curve" smooth="yes"/>
      <point x="239" y="453"/>
      <point x="195" y="439"/>
      <point x="149" y="414" type="curve"/>
      <point x="115" y="493" type="line"/>
      <point x="167" y="519"/>
      <point x="231" y="536"/>
      <point x="308" y="536" type="curve" smooth="yes"/>
      <point x="433" y="536"/>
      <point x="504" y="479"/>
      <point x="504" y="357" type="curve" smooth="yes"/>
      <point x="504" y="0" type="line"/>
      <point x="398" y="0" type="line"/>
      <point x="398" y="56" type="line"/>
      <point x="362" y="20"/>
      <point x="311" y="-11"/>
    </contour>
    <contour>
      <point x="268" y="71" type="curve" smooth="yes"/>
      <point x="325" y="71"/>
      <point x="370" y="99"/>
      <point x="398" y="134" type="curve"/>
      <point x="398" y="229" type="line"/>
      <point x="368" y="245"/>
      <point x="335" y="255"/>
      <point x="279" y="255" type="curve" smooth="yes"/>
      <point x="213" y="255"/>
      <point x="176" y="222"/>
      <point x="176" y="165" type="curve" smooth="yes"/>
      <point x="176" y="102"/>
      <point x="211" y="71"/>
    </contour>
  </outline>
</glyph>
<glyph name="b" format="1">
  <advance width="600"/>
  <unicode hex="0062"/>
  <outline>
    <contour>
      <point x="339" y="-11" type="curve" smooth="yes"/>
      <point x="276" y="-11"/>
      <point x="234" y="16"/>
      <point x="199" y="53" type="curve"/>
      <point x="199" y="0" type="line"/>
      <point x="93" y="0" type="line"/>
      <point x="93" y="678" type="line"/>
      <point x="199" y="729" type="line"/>
      <point x="199" y="468" type="line"/>
      <point x="236" y="505"/>
      <point x="281" y="536"/>
      <point x="348" y="536" type="curve" smooth="yes"/>
      <point x="452" y="536"/>
      <point x="534" y="456"/>
      <point x="534" y="269" type="curve" smooth="yes"/>
      <point x="534" y="82"/>
      <point x="450" y="-11"/>
    </contour>
    <contour>
      <point x="319" y="79" type="curve" smooth="yes"/>
      <point x="392" y="79"/>
      <point x="427" y="139"/>
      <point x="427" y="266" type="curve" smooth="yes"/>
      <point x="427" y="394"/>
      <point x="387" y="446"/>
      <point x="317" y="446" type="curve" smooth="yes"/>
      <point x="269" y="446"/>
      <point x="230" y="422"/>
      <point x="199" y="385" type="curve"/>
      <point x="199" y="143" type="line"/>
      <point x="225" y="106"/>
      <point x="267" y="79"/>
    </contour>
  </outline>
</glyph>
<glyph name="c" format="1">
  <advance width="600"/>
  <unicode hex="0063"/>
  <outline>
    <contour>
      <point x="329" y="-11" type="curve" smooth="yes"/>
      <point x="194" y="-11"/>
      <point x="83" y="80"/>
      <point x="83" y="262" type="curve" smooth="yes"/>
      <point x="83" y="445"/>
      <point x="199" y="536"/>
      <point x="335" y="536" type="curve" smooth="yes"/>
      <point x="418" y="536"/>
      <point x="475" y="507"/>
      <point x="522" y="458" type="curve"/>
      <point x="455" y="388" type="line"/>
      <point x="419" y="425"/>
      <point x="389" y="447"/>
      <point x="329" y="447" type="curve" smooth="yes"/>
      <point x="242" y="447"/>
      <point x="190" y="374"/>
      <point x="190" y="266" type="curve" smooth="yes"/>
      <point x="190" y="152"/>
      <point x="235" y="78"/>
      <point x="333" y="78" type="curve" smooth="yes"/>
      <point x="387" y="78"/>
      <point x="427" y="105"/>
      <point x="462" y="145" type="curve"/>
      <point x="525" y="80" type="line"/>
      <point x="480" y="27"/>
      <point x="418" y="-11"/>
    </contour>
  </outline>
</glyph>
<glyph name="e" format="1">
  <advance width="600"/>
  <unicode hex="0065"/>
  <outline>
    <contour>
      <point x="302" y="-11" type="curve" smooth="yes"/>
      <point x="183" y="-11"/>
      <point x="68" y="70"/>
      <point x="68" y="265" type="curve" smooth="yes"/>
      <point x="68" y="435"/>
      <point x="169" y="536"/>
      <point x="302" y="536" type="curve" smooth="yes"/>
      <point x="447" y="536"/>
      <point x="529" y="431"/>
      <point x="529" y="269" type="curve" smooth="yes"/>
      <point x="529" y="251"/>
      <point x="528" y="239"/>
      <point x="527" y="229" type="curve"/>
      <point x="174" y="229" type="line"/>
      <point x="181" y="135"/>
      <point x="231" y="78"/>
      <point x="310" y="78" type="curve" smooth="yes"/>
      <point x="372" y="78"/>
      <point x="408" y="95"/>
      <point x="458" y="122" type="curve"/>
      <point x="501" y="46" type="line"/>
      <point x="435" y="9"/>
      <point x="386" y="-11"/>
    </contour>
    <contour>
      <point x="174" y="305" type="curve"/>
      <point x="430" y="305" type="line"/>
      <point x="423" y="394"/>
      <point x="387" y="450"/>
      <point x="300" y="450" type="curve" smooth="yes"/>
      <point x="229" y="450"/>
      <point x="182" y="400"/>
    </contour>
  </outline>
</glyph>
<glyph name="f" format="1">
  <advance width="600"/>
  <unicode hex="0066"/>
  <outline>
    <contour>
      <point x="221" y="0" type="line"/>
      <point x="221" y="435" type="line"/>
      <point x="126" y="435" type="line"/>
      <point x="126" y="525" type="line"/>
      <point x="221" y="525" type="line"/>
      <point x="221" y="561" type="line" smooth="yes"/>
      <point x="221" y="683"/>
      <point x="293" y="726"/>
      <point x="378" y="726" type="curve" smooth="yes"/>
      <point x="431" y="726"/>
      <point x="468" y="712"/>
      <point x="491" y="702" type="curve"/>
      <point x="491" y="615" type="line"/>
      <point x="471" y="624"/>
      <point x="441" y="636"/>
      <point x="403" y="636" type="curve" smooth="yes"/>
      <point x="360" y="636"/>
      <point x="325" y="621"/>
      <point x="325" y="564" type="curve" smooth="yes"/>
      <point x="325" y="525" type="line"/>
      <point x="469" y="525" type="line"/>
      <point x="469" y="435" type="line"/>
      <point x="327" y="435" type="line"/>
      <point x="327" y="0" type="line"/>
    </contour>
  </outline>
</glyph>
<glyph name="g" format="1">
  <advance width="600"/>
  <unicode hex="0067"/>
  <outline>
    <contour>
      <point x="238" y="-193" type="curve"/>
      <point x="202" y="-120" type="line"/>
      <point x="364" y="-110"/>
      <point x="402" y="-74"/>
      <point x="402" y="33" type="curve" smooth="yes"/>
      <point x="402" y="58" type="line"/>
      <point x="365" y="21"/>
      <point x="319" y="-10"/>
      <point x="251" y="-10" type="curve" smooth="yes"/>
      <point x="152" y="-10"/>
      <point x="66" y="70"/>
      <point x="66" y="256" type="curve" smooth="yes"/>
      <point x="66" y="443"/>
      <point x="150" y="536"/>
      <point x="261" y="536" type="curve" smooth="yes"/>
      <point x="324" y="536"/>
      <point x="367" y="509"/>
      <point x="402" y="473" type="curve"/>
      <point x="402" y="525" type="line"/>
      <point x="507" y="525" type="line"/>
      <point x="507" y="57" type="line" smooth="yes"/>
      <point x="507" y="-108"/>
      <point x="435" y="-180"/>
    </contour>
    <contour>
      <point x="284" y="79" type="curve" smooth="yes"/>
      <point x="332" y="79"/>
      <point x="370" y="103"/>
      <point x="402" y="140" type="curve"/>
      <point x="402" y="383" type="line"/>
      <point x="376" y="418"/>
      <point x="334" y="446"/>
      <point x="281" y="446" type="curve" smooth="yes"/>
      <point x="209" y="446"/>
      <point x="173" y="386"/>
      <point x="173" y="259" type="curve" smooth="yes"/>
      <point x="173" y="125"/>
      <point x="214" y="79"/>
    </contour>
  </outline>
</glyph>
<glyph name="h" format="1">
  <advance width="600"/>
  <unicode hex="0068"/>
  <outline>
    <contour>
      <point x="91" y="0" type="line"/>
      <point x="91" y="678" type="line"/>
      <point x="196" y="729" type="line"/>
      <point x="196" y="469" type="line"/>
      <point x="227" y="507"/>
      <point x="272" y="536"/>
      <point x="336" y="536" type="curve" smooth="yes"/>
      <point x="446" y="536"/>
      <point x="512" y="468"/>
      <point x="512" y="323" type="curve" smooth="yes"/>
      <point x="512" y="0" type="line"/>
      <point x="407" y="0" type="line"/>
      <point x="407" y="308" type="line" smooth="yes"/>
      <point x="407" y="405"/>
      <point x="373" y="446"/>
      <point x="307" y="446" type="curve" smooth="yes"/>
      <point x="244" y="446"/>
      <point x="196" y="407"/>
      <point x="196" y="311" type="curve" smooth="yes"/>
      <point x="196" y="0" type="line"/>
    </contour>
  </outline>
</glyph>
<glyph name="i" format="1">
  <advance width="600"/>
  <unicode hex="0069"/>
  <outline>
    <contour>
      <point x="266" y="610" type="curve" smooth="yes"/>
      <point x="225" y="610"/>
      <point x="196" y="639"/>
      <point x="196" y="675" type="curve" smooth="yes"/>
      <point x="196" y="712"/>
      <point x="225" y="740"/>
      <point x="266" y="740" type="curve" smooth="yes"/>
      <point x="308" y="740"/>
      <point x="336" y="712"/>
      <point x="336" y="675" type="curve" smooth="yes"/>
      <point x="336" y="639"/>
      <point x="308" y="610"/>
    </contour>
    <contour>
      <point x="357" y="-11" type="curve" smooth="yes"/>
      <point x="269" y="-11"/>
      <point x="211" y="34"/>
      <point x="211" y="135" type="curve" smooth="yes"/>
      <point x="211" y="525" type="line"/>
      <point x="317" y="525" type="line"/>
      <point x="317" y="153" type="line" smooth="yes"/>
      <point x="317" y="102"/>
      <point x="343" y="83"/>
      <point x="387" y="83" type="curve" smooth="yes"/>
      <point x="431" y="83"/>
      <point x="464" y="94"/>
      <point x="488" y="104" type="curve"/>
      <point x="473" y="12" type="line"/>
      <point x="450" y="2"/>
      <point x="404" y="-11"/>
    </contour>
  </outline>
</glyph>
<glyph name="j" format="1">
  <advance width="600"/>
  <unicode hex="006A"/>
  <outline>
    <contour>
      <point x="304" y="610" type="curve" smooth="yes"/>
      <point x="262" y="610"/>
      <point x="234" y="639"/>
      <point x="234" y="675" type="curve" smooth="yes"/>
      <point x="234" y="712"/>
      <point x="262" y="740"/>
      <point x="304" y="740" type="curve" smooth="yes"/>
      <point x="345" y="740"/>
      <point x="374" y="712"/>
      <point x="374" y="675" type="curve" smooth="yes"/>
      <point x="374" y="639"/>
      <point x="345" y="610"/>
    </contour>
    <contour>
      <point x="163" y="-192" type="curve"/>
      <point x="119" y="-115" type="line"/>
      <point x="234" y="-89"/>
      <point x="252" y="-63"/>
      <point x="252" y="35" type="curve" smooth="yes"/>
      <point x="252" y="525" type="line"/>
      <point x="358" y="525" type="line"/>
      <point x="358" y="35" type="line" smooth="yes"/>
      <point x="358" y="-100"/>
      <point x="328" y="-162"/>
    </contour>
  </outline>
</glyph>
<glyph name="k" format="1">
  <advance width="600"/>
  <unicode hex="006B"/>
  <outline>
    <contour>
      <point x="96" y="0" type="line"/>
      <point x="96" y="678" type="line"/>
      <point x="201" y="729" type="line"/>
      <point x="201" y="361" type="line" smooth="yes"/>
      <point x="201" y="332"/>
      <point x="200" y="276"/>
      <point x="199" y="267" type="curve"/>
      <point x="205" y="276"/>
      <point x="231" y="314"/>
      <point x="249" y="337" type="curve" smooth="yes"/>
      <point x="397" y="525" type="line"/>
      <point x="517" y="525" type="line"/>
      <point x="362" y="338" type="line"/>
      <point x="539" y="0" type="line"/>
      <point x="426" y="0" type="line"/>
      <point x="292" y="252" type="line"/>
      <point x="201" y="143" type="line"/>
      <point x="201" y="0" type="line"/>
    </contour>
  </outline>
</glyph>
<glyph name="l" format="1">
  <advance width="600"/>
  <unicode hex="006C"/>
  <outline>
    <contour>
      <point x="361" y="-11" type="curve" smooth="yes"/>
      <point x="273" y="-11"/>
      <point x="214" y="34"/>
      <point x="214" y="135" type="curve" smooth="yes"/>
      <point x="214" y="678" type="line"/>
      <point x="321" y="729" type="line"/>
      <point x="321" y="153" type="line" smooth="yes"/>
      <point x="321" y="102"/>
      <point x="346" y="83"/>
      <point x="391" y="83" type="curve" smooth="yes"/>
      <point x="435" y="83"/>
      <point x="468" y="94"/>
      <point x="491" y="104" type="curve"/>
      <point x="476" y="12" type="line"/>
      <point x="454" y="2"/>
      <point x="408" y="-11"/>
    </contour>
  </outline>
</glyph>
<glyph name="m" format="1">
  <advance width="600"/>
  <unicode hex="006D"/>
  <outline>
    <contour>
      <point x="52" y="0" type="line"/>
      <point x="52" y="525" type="line"/>
      <point x="145" y="525" type="line"/>
      <point x="145" y="486" type="line"/>
      <point x="166" y="517"/>
      <point x="193" y="536"/>
      <point x="234" y="536" type="curve" smooth="yes"/>
      <point x="281" y="536"/>
      <point x="308" y="516"/>
      <point x="328" y="482" type="curve"/>
      <point x="356" y="516"/>
      <point x="388" y="536"/>
      <point x="437" y="536" type="curve" smooth="yes"/>
      <point x="511" y="536"/>
      <point x="551" y="486"/>
      <point x="551" y="380" type="curve" smooth="yes"/>
      <point x="551" y="0" type="line"/>
      <point x="458" y="0" type="line"/>
      <point x="458" y="365" type="line" smooth="yes"/>
      <point x="458" y="427"/>
      <point x="441" y="451"/>
      <point x="407" y="451" type="curve" smooth="yes"/>
      <point x="375" y="451"/>
      <point x="348" y="427"/>
      <point x="348" y="366" type="curve" smooth="yes"/>
      <point x="348" y="0" type="line"/>
      <point x="255" y="0" type="line"/>
      <point x="255" y="365" type="line" smooth="yes"/>
      <point x="255" y="427"/>
      <point x="238" y="451"/>
      <point x="204" y="451" type="curve" smooth="yes"/>
      <point x="172" y="451"/>
      <point x="145" y="427"/>
      <point x="145" y="366" type="curve" smooth="yes"/>
      <point x="145" y="0" type="line"/>
    </contour>
  </outline>
</glyph>
<glyph name="n" format="1">
  <advance width="600"/>
  <unicode hex="006E"/>
  <outline>
    <contour>
      <point x="91" y="0" type="line"/>
      <point x="91" y="525" type="line"/>
      <point x="196" y="525" type="line"/>
      <point x="196" y="469" type="line"/>
      <point x="227" y="507"/>
      <point x="272" y="536"/>
      <point x="336" y="536" type="curve" smooth="yes"/>
      <point x="446" y="536"/>
      <point x="512" y="468"/>
      <point x="512" y="323" type="curve" smooth="yes"/>
      <point x="512" y="0" type="line"/>
      <point x="407" y="0" type="line"/>
      <point x="407" y="308" type="line" smooth="yes"/>
      <point x="407" y="405"/>
      <point x="373" y="446"/>
      <point x="307" y="446" type="curve" smooth="yes"/>
      <point x="244" y="446"/>
      <point x="196" y="407"/>
      <point x="196" y="311" type="curve" smooth="yes"/>
      <point x="196" y="0" type="line"/>
    </contour>
  </outline>
</glyph>
<glyph name="o" format="1">
  <advance width="600"/>
  <unicode hex="006F"/>
  <outline>
    <contour>
      <point x="299" y="-11" type="curve" smooth="yes"/>
      <point x="167" y="-11"/>
      <point x="64" y="84"/>
      <point x="64" y="263" type="curve" smooth="yes"/>
      <point x="64" y="443"/>
      <point x="170" y="536"/>
      <point x="301" y="536" type="curve" smooth="yes"/>
      <point x="433" y="536"/>
      <point x="536" y="445"/>
      <point x="536" y="265" type="curve" smooth="yes"/>
      <point x="536" y="86"/>
      <point x="430" y="-11"/>
    </contour>
    <contour>
      <point x="300" y="78" type="curve" smooth="yes"/>
      <point x="378" y="78"/>
      <point x="428" y="141"/>
      <point x="428" y="264" type="curve" smooth="yes"/>
      <point x="428" y="387"/>
      <point x="377" y="447"/>
      <point x="300" y="447" type="curve" smooth="yes"/>
      <point x="222" y="447"/>
      <point x="172" y="387"/>
      <point x="172" y="264" type="curve" smooth="yes"/>
      <point x="172" y="141"/>
      <point x="223" y="78"/>
    </contour>
  </outline>
</glyph>
<glyph name="r" format="1">
  <advance width="600"/>
  <unicode hex="0072"/>
  <outline>
    <contour>
      <point x="138" y="0" type="line"/>
      <point x="138" y="525" type="line"/>
      <point x="244" y="525" type="line"/>
      <point x="244" y="448" type="line"/>
      <point x="275" y="498"/>
      <point x="335" y="536"/>
      <point x="400" y="536" type="curve" smooth="yes"/>
      <point x="449" y="536"/>
      <point x="484" y="524"/>
      <point x="507" y="510" type="curve"/>
      <point x="472" y="405" type="line"/>
      <point x="448" y="424"/>
      <point x="422" y="438"/>
      <point x="376" y="438" type="curve" smooth="yes"/>
      <point x="288" y="438"/>
      <point x="244" y="363"/>
      <point x="244" y="270" type="curve" smooth="yes"/>
      <point x="244" y="0" type="line"/>
    </contour>
  </outline>
</glyph>
<glyph name="s" format="1">
  <advance width="600"/>
  <unicode hex="0073"/>
  <outline>
    <contour>
      <point x="303" y="-11" type="curve" smooth="yes"/>
      <point x="216" y="-11"/>
      <point x="148" y="14"/>
      <point x="90" y="55" type="curve"/>
      <point x="133" y="134" type="line"/>
      <point x="183" y="97"/>
      <point x="245" y="74"/>
      <point x="306" y="74" type="curve" smooth="yes"/>
      <point x="373" y="74"/>
      <point x="405" y="99"/>
      <point x="405" y="140" type="curve" smooth="yes"/>
      <point x="405" y="181"/>
      <point x="390" y="195"/>
      <point x="293" y="219" type="curve" smooth="yes"/>
      <point x="165" y="251"/>
      <point x="106" y="298"/>
      <point x="106" y="386" type="curve" smooth="yes"/>
      <point x="106" y="478"/>
      <point x="180" y="536"/>
      <point x="296" y="536" type="curve" smooth="yes"/>
      <point x="379" y="536"/>
      <point x="442" y="513"/>
      <point x="491" y="479" type="curve"/>
      <point x="450" y="401" type="line"/>
      <point x="400" y="434"/>
      <point x="353" y="451"/>
      <point x="290" y="451" type="curve" smooth="yes"/>
      <point x="234" y="451"/>
      <point x="206" y="428"/>
      <point x="206" y="393" type="curve" smooth="yes"/>
      <point x="206" y="357"/>
      <point x="217" y="337"/>
      <point x="312" y="313" type="curve" smooth="yes"/>
      <point x="437" y="282"/>
      <point x="505" y="247"/>
      <point x="505" y="148" type="curve" smooth="yes"/>
      <point x="505" y="38"/>
      <point x="418" y="-11"/>
    </contour>
  </outline>
</glyph>
<glyph name="t" format="1">
  <advance width="600"/>
  <unicode hex="0074"/>
  <outline>
    <contour>
      <point x="334" y="-11" type="curve" smooth="yes"/>
      <point x="253" y="-11"/>
      <point x="200" y="35"/>
      <point x="200" y="136" type="curve" smooth="yes"/>
      <point x="200" y="435" type="line"/>
      <point x="94" y="435" type="line"/>
      <point x="94" y="525" type="line"/>
      <point x="200" y="525" type="line"/>
      <point x="200" y="678" type="line"/>
      <point x="305" y="729" type="line"/>
      <point x="305" y="525" type="line"/>
      <point x="470" y="525" type="line"/>
      <point x="470" y="435" type="line"/>
      <point x="305" y="435" type="line"/>
      <point x="305" y="154" type="line" smooth="yes"/>
      <point x="305" y="103"/>
      <point x="324" y="83"/>
      <point x="367" y="83" type="curve" smooth="yes"/>
      <point x="412" y="83"/>
      <point x="435" y="96"/>
      <point x="462" y="109" type="curve"/>
      <point x="446" y="13" type="line"/>
      <point x="417" y="-1"/>
      <point x="390" y="-11"/>
    </contour>
  </outline>
</glyph>
<glyph name="u" format="1">
  <advance width="600"/>
  <unicode hex="0075"/>
  <outline>
    <contour>
      <point x="264" y="-11" type="curve" smooth="yes"/>
      <point x="154" y="-11"/>
      <point x="88" y="57"/>
      <point x="88" y="202" type="curve" smooth="yes"/>
      <point x="88" y="525" type="line"/>
      <point x="193" y="525" type="line"/>
      <point x="193" y="217" type="line" smooth="yes"/>
      <point x="193" y="120"/>
      <point x="227" y="79"/>
      <point x="293" y="79" type="curve" smooth="yes"/>
      <point x="356" y="79"/>
      <point x="404" y="118"/>
      <point x="404" y="214" type="curve" smooth="yes"/>
      <point x="404" y="525" type="line"/>
      <point x="509" y="525" type="line"/>
      <point x="509" y="0" type="line"/>
      <point x="404" y="0" type="line"/>
      <point x="404" y="56" type="line"/>
      <point x="373" y="18"/>
      <point x="328" y="-11"/>
    </contour>
  </outline>
</glyph>
<glyph name="v" format="1">
  <advance width="600"/>
  <unicode hex="0076"/>
  <outline>
    <contour>
      <point x="250" y="0" type="line"/>
      <point x="52" y="525" type="line"/>
      <point x="169" y="525" type="line"/>
      <point x="287" y="172" type="line" smooth="yes"/>
      <point x="293" y="155"/>
      <point x="299" y="123"/>
      <point x="302" y="104" type="curve"/>
      <point x="306" y="123"/>
      <point x="311" y="155"/>
      <point x="317" y="172" type="curve" smooth="yes"/>
      <point x="435" y="525" type="line"/>
      <point x="548" y="525" type="line"/>
      <point x="350" y="0" type="line"/>
    </contour>
  </outline>
</glyph>
<glyph name="w" format="1">
  <advance width="600"/>
  <unicode hex="0077"/>
  <outline>
    <contour>
      <point x="129" y="0" type="line"/>
      <point x="29" y="525" type="line"/>
      <point x="126" y="525" type="line"/>
      <point x="164" y="295" type="line" smooth="yes"/>
      <point x="172" y="246"/>
      <point x="179" y="166"/>
      <point x="183" y="116" type="curve"/>
      <point x="189" y="165"/>
      <point x="197" y="243"/>
      <point x="208" y="294" type="curve" smooth="yes"/>
      <point x="257" y="525" type="line"/>
      <point x="344" y="525" type="line"/>
      <point x="393" y="294" type="line" smooth="yes"/>
      <point x="404" y="243"/>
      <point x="414" y="159"/>
      <point x="419" y="116" type="curve"/>
      <point x="423" y="161"/>
      <point x="430" y="246"/>
      <point x="438" y="295" type="curve" smooth="yes"/>
      <point x="475" y="525" type="line"/>
      <point x="571" y="525" type="line"/>
      <point x="471" y="0" type="line"/>
      <point x="376" y="0" type="line"/>
      <point x="324" y="246" type="line" smooth="yes"/>
      <point x="312" y="304"/>
      <point x="305" y="368"/>
      <point x="300" y="416" type="curve"/>
      <point x="295" y="368"/>
      <point x="288" y="304"/>
      <point x="276" y="246" type="curve" smooth="yes"/>
      <point x="223" y="0" type="line"/>
    </contour>
  </outline>
</glyph>
<glyph name="x" format="1">
  <advance width="600"/>
  <unicode hex="0078"/>
  <outline>
    <contour>
      <point x="64" y="0" type="line"/>
      <point x="243" y="273" type="line"/>
      <point x="77" y="525" type="line"/>
      <point x="197" y="525" type="line"/>
      <point x="267" y="416" type="line" smooth="yes"/>
      <point x="285" y="388"/>
      <point x="294" y="367"/>
      <point x="306" y="342" type="curve"/>
      <point x="319" y="367"/>
      <point x="327" y="387"/>
      <point x="345" y="416" type="curve" smooth="yes"/>
      <point x="412" y="525" type="line"/>
      <point x="523" y="525" type="line"/>
      <point x="357" y="274" type="line"/>
      <point x="537" y="0" type="line"/>
      <point x="416" y="0" type="line"/>
      <point x="339" y="124" type="line" smooth="yes"/>
      <point x="321" y="154"/>
      <point x="312" y="172"/>
      <point x="297" y="202" type="curve"/>
      <point x="283" y="172"/>
      <point x="274" y="154"/>
      <point x="255" y="124" type="curve" smooth="yes"/>
      <point x="176" y="0" type="line"/>
    </contour>
  </outline>
</glyph>
<glyph name="y" format="1">
  <advance width="600"/>
  <unicode hex="0079"/>
  <outline>
    <contour>
      <point x="175" y="-185" type="line"/>
      <point x="250" y="4" type="line"/>
      <point x="52" y="525" type="line"/>
      <point x="169" y="525" type="line"/>
      <point x="288" y="174" type="line" smooth="yes"/>
      <point x="295" y="154"/>
      <point x="300" y="125"/>
      <point x="302" y="105" type="curve"/>
      <point x="306" y="125"/>
      <point x="312" y="156"/>
      <point x="317" y="172" type="curve" smooth="yes"/>
      <point x="435" y="525" type="line"/>
      <point x="548" y="525" type="line"/>
      <point x="280" y="-185" type="line"/>
    </contour>
  </outline>
</glyph>
<glyph name="z" format="1">
  <advance width="600"/>
  <unicode hex="007A"/>
  <outline>
    <contour>
      <point x="80" y="0" type="line"/>
      <point x="80" y="78" type="line"/>
      <point x="310" y="354" type="line" smooth="yes"/>
      <point x="346" y="398"/>
      <point x="376" y="428"/>
      <point x="385" y="436" type="curve"/>
      <point x="374" y="436"/>
      <point x="334" y="435"/>
      <point x="290" y="435" type="curve" smooth="yes"/>
      <point x="101" y="435" type="line"/>
      <point x="101" y="525" type="line"/>
      <point x="510" y="525" type="line"/>
      <point x="510" y="447" type="line"/>
      <point x="287" y="179" type="line" smooth="yes"/>
      <point x="258" y="144"/>
      <point x="214" y="97"/>
      <point x="204" y="89" type="curve"/>
      <point x="215" y="89"/>
      <point x="261" y="90"/>
      <point x="303" y="90" type="curve" smooth="yes"/>
      <point x="510" y="90" type="line"/>
      <point x="510" y="0" type="line"/>
    </contour>
  </outline>
</glyph>
<glyph name="braceleft" format="1">
  <advance width="600"/>
  <unicode hex="007B"/>
  <outline>
    <contour>
      <point x="469" y="-111" type="line"/>
      <point x="287" y="-109"/>
      <point x="215" y="-26"/>
      <point x="215" y="119" type="curve" smooth="yes"/>
      <point x="215" y="190" type="line" smooth="yes"/>
      <point x="215" y="236"/>
      <point x="200" y="249"/>
      <point x="154" y="249" type="curve" smooth="yes"/>
      <point x="124" y="249" type="line"/>
      <point x="124" y="347" type="line"/>
      <point x="154" y="347" type="line" smooth="yes"/>
      <point x="200" y="347"/>
      <point x="215" y="360"/>
      <point x="215" y="407" type="curve" smooth="yes"/>
      <point x="215" y="472" type="line" smooth="yes"/>
      <point x="215" y="618"/>
      <point x="287" y="700"/>
      <point x="469" y="702" type="curve"/>
      <point x="469" y="614" type="line"/>
      <point x="358" y="607"/>
      <point x="319" y="569"/>
      <point x="319" y="469" type="curve" smooth="yes"/>
      <point x="319" y="439" type="line" smooth="yes"/>
      <point x="319" y="349"/>
      <point x="297" y="318"/>
      <point x="240" y="298" type="curve"/>
      <point x="297" y="278"/>
      <point x="319" y="245"/>
      <point x="319" y="155" type="curve" smooth="yes"/>
      <point x="319" y="122" type="line" smooth="yes"/>
      <point x="319" y="22"/>
      <point x="358" y="-16"/>
      <point x="469" y="-23" type="curve"/>
    </contour>
  </outline>
</glyph>
<glyph name="bar" format="1">
  <advance width="600"/>
  <unicode hex="007C"/>
  <outline>
    <contour>
      <point x="252" y="-185" type="line"/>
      <point x="252" y="800" type="line"/>
      <point x="347" y="800" type="line"/>
      <point x="347" y="-185" type="line"/>
    </contour>
  </outline>
</glyph>
<glyph name="braceright" format="1">
  <advance width="600"/>
  <unicode hex="007D"/>
  <outline>
    <contour>
      <point x="130" y="-111" type="curve"/>
      <point x="130" y="-23" type="line"/>
      <point x="241" y="-16"/>
      <point x="281" y="22"/>
      <point x="281" y="122" type="curve" smooth="yes"/>
      <point x="281" y="155" type="line" smooth="yes"/>
      <point x="281" y="245"/>
      <point x="302" y="278"/>
      <point x="359" y="298" type="curve"/>
      <point x="302" y="318"/>
      <point x="281" y="349"/>
      <point x="281" y="439" type="curve" smooth="yes"/>
      <point x="281" y="469" type="line" smooth="yes"/>
      <point x="281" y="569"/>
      <point x="241" y="607"/>
      <point x="130" y="614" type="curve"/>
      <point x="130" y="702" type="line"/>
      <point x="312" y="700"/>
      <point x="384" y="618"/>
      <point x="384" y="472" type="curve" smooth="yes"/>
      <point x="384" y="407" type="line" smooth="yes"/>
      <point x="384" y="360"/>
      <point x="399" y="347"/>
      <point x="446" y="347" type="curve" smooth="yes"/>
      <point x="475" y="347" type="line"/>
      <point x="475" y="249" type="line"/>
      <point x="446" y="249" type="line" smooth="yes"/>
      <point x="399" y="249"/>
      <point x="384" y="236"/>
      <point x="384" y="190" type="curve" smooth="yes"/>
      <point x="384" y="119" type="line" smooth="yes"/>
      <point x="384" y="-26"/>
      <point x="312" y="-109"/>
    </contour>
  </outline>
</glyph>
<glyph name="asciitilde" format="1">
  <advance width="600"/>
  <unicode hex="007E"/>
  <outline>
    <contour>
      <point x="142" y="280" type="curve"/>
      <point x="63" y="316" type="line"/>
      <point x="103" y="413"/>
      <point x="142" y="456"/>
      <point x="211" y="456" type="curve" smooth="yes"/>
      <point x="250" y="456"/>
      <point x="270" y="444"/>
      <point x="304" y="423" type="curve" smooth="yes"/>
      <point x="344" y="397"/>
      <point x="365" y="385"/>
      <point x="386" y="385" type="curve" smooth="yes"/>
      <point x="417" y="385"/>
      <point x="429" y="401"/>
      <point x="458" y="462" type="curve"/>
      <point x="537" y="426" type="line"/>
      <point x="497" y="329"/>
      <point x="458" y="286"/>
      <point x="389" y="286" type="curve" smooth="yes"/>
      <point x="349" y="286"/>
      <point x="328" y="299"/>
      <point x="296" y="319" type="curve" smooth="yes"/>
      <point x="254" y="346"/>
      <point x="232" y="357"/>
      <point x="214" y="357" type="curve" smooth="yes"/>
      <point x="183" y="357"/>
      <point x="169" y="339"/>
    </contour>
  </outline>
</glyph>
<glyph name="exclamdown" format="1">
  <advance width="600"/>
  <unicode hex="00A1"/>
  <outline>
    <contour>
      <point x="300" y="557" type="curve" smooth="yes"/>
      <point x="256" y="557"/>
      <point x="223" y="590"/>
      <point x="223" y="634" type="curve" smooth="yes"/>
      <point x="223" y="678"/>
      <point x="256" y="711"/>
      <point x="300" y="711" type="curve" smooth="yes"/>
      <point x="344" y="711"/>
      <point x="377" y="678"/>
      <point x="377" y="634" type="curve" smooth="yes"/>
      <point x="377" y="590"/>
      <point x="344" y="557"/>
    </contour>
    <contour>
      <point x="243" y="0" type="line"/>
      <point x="243" y="278" type="line"/>
      <point x="266" y="473" type="line"/>
      <point x="335" y="473" type="line"/>
      <point x="358" y="278" type="line"/>
      <point x="358" y="0" type="line"/>
    </contour>
  </outline>
</glyph>
<glyph name="cent" format="1">
  <advance width="600"/>
  <unicode hex="00A2"/>
  <outline>
    <contour>
      <point x="274" y="87" type="line"/>
      <point x="165" y="109"/>
      <point x="83" y="199"/>
      <point x="83" y="355" type="curve" smooth="yes"/>
      <point x="83" y="510"/>
      <point x="166" y="599"/>
      <point x="274" y="623" type="curve"/>
      <point x="274" y="717" type="line"/>
      <point x="373" y="717" type="line"/>
      <point x="373" y="627" type="line"/>
      <point x="436" y="619"/>
      <point x="483" y="592"/>
      <point x="522" y="551" type="curve"/>
      <point x="455" y="481" type="line"/>
      <point x="426" y="511"/>
      <point x="401" y="531"/>
      <point x="362" y="537" type="curve"/>
      <point x="362" y="174" type="line"/>
      <point x="402" y="182"/>
      <point x="434" y="206"/>
      <point x="462" y="238" type="curve"/>
      <point x="525" y="173" type="line"/>
      <point x="488" y="129"/>
      <point x="439" y="96"/>
      <point x="373" y="85" type="curve"/>
      <point x="373" y="-11" type="line"/>
      <point x="274" y="-11" type="line"/>
    </contour>
    <contour>
      <point x="285" y="533" type="line"/>
      <point x="225" y="512"/>
      <point x="190" y="447"/>
      <point x="190" y="359" type="curve" smooth="yes"/>
      <point x="190" y="266"/>
      <point x="220" y="199"/>
      <point x="285" y="178" type="curve"/>
    </contour>
  </outline>
</glyph>
<glyph name="sterling" format="1">
  <advance width="600"/>
  <unicode hex="00A3"/>
  <outline>
    <contour>
      <point x="89" y="0" type="line"/>
      <point x="89" y="83" type="line"/>
      <point x="138" y="141"/>
      <point x="172" y="193"/>
      <point x="176" y="283" type="curve"/>
      <point x="89" y="283" type="line"/>
      <point x="89" y="369" type="line"/>
      <point x="165" y="369" type="line"/>
      <point x="146" y="425"/>
      <point x="107" y="456"/>
      <point x="107" y="538" type="curve" smooth="yes"/>
      <point x="107" y="645"/>
      <point x="191" y="711"/>
      <point x="321" y="711" type="curve" smooth="yes"/>
      <point x="409" y="711"/>
      <point x="477" y="676"/>
      <point x="530" y="611" type="curve"/>
      <point x="463" y="544" type="line"/>
      <point x="422" y="596"/>
      <point x="377" y="621"/>
      <point x="319" y="621" type="curve" smooth="yes"/>
      <point x="243" y="621"/>
      <point x="211" y="586"/>
      <point x="211" y="534" type="curve" smooth="yes"/>
      <point x="211" y="473"/>
      <point x="249" y="438"/>
      <point x="267" y="369" type="curve"/>
      <point x="403" y="369" type="line"/>
      <point x="403" y="283" type="line"/>
      <point x="274" y="283" type="line"/>
      <point x="271" y="200"/>
      <point x="240" y="141"/>
      <point x="204" y="92" type="curve"/>
      <point x="530" y="92" type="line"/>
      <point x="530" y="0" type="line"/>
    </contour>
  </outline>
</glyph>
<glyph name="yen" format="1">
  <advance width="600"/>
  <unicode hex="00A5"/>
  <outline>
    <contour>
      <point x="246" y="0" type="line"/>
      <point x="246" y="122" type="line"/>
      <point x="109" y="122" type="line"/>
      <point x="109" y="209" type="line"/>
      <point x="246" y="209" type="line"/>
      <point x="246" y="279" type="line"/>
      <point x="48" y="700" type="line"/>
      <point x="166" y="700" type="line"/>
      <point x="240" y="533" type="line" smooth="yes"/>
      <point x="267" y="473"/>
      <point x="288" y="408"/>
      <point x="302" y="364" type="curve"/>
      <point x="317" y="409"/>
      <point x="339" y="475"/>
      <point x="365" y="533" type="curve" smooth="yes"/>
      <point x="439" y="700" type="line"/>
      <point x="551" y="700" type="line"/>
      <point x="353" y="281" type="line"/>
      <point x="353" y="209" type="line"/>
      <point x="490" y="209" type="line"/>
      <point x="490" y="122" type="line"/>
      <point x="353" y="122" type="line"/>
      <point x="353" y="0" type="line"/>
    </contour>
  </outline>
</glyph>
<glyph name="section" format="1">
  <advance width="600"/>
  <unicode hex="00A7"/>
  <outline>
    <contour>
      <point x="296" y="-164" type="curve" smooth="yes"/>
      <point x="216" y="-164"/>
      <point x="155" y="-131"/>
      <point x="109" y="-72" type="curve"/>
      <point x="172" y="-10" type="line"/>
      <point x="211" y="-55"/>
      <point x="250" y="-77"/>
      <point x="305" y="-77" type="curve" smooth="yes"/>
      <point x="352" y="-77"/>
      <point x="380" y="-52"/>
      <point x="380" y="-13" type="curve" smooth="yes"/>
      <point x="380" y="27"/>
      <point x="359" y="55"/>
      <point x="271" y="83" type="curve" smooth="yes"/>
      <point x="118" y="133"/>
      <point x="64" y="178"/>
      <point x="64" y="281" type="curve" smooth="yes"/>
      <point x="64" y="357"/>
      <point x="110" y="410"/>
      <point x="168" y="448" type="curve"/>
      <point x="138" y="475"/>
      <point x="123" y="509"/>
      <point x="123" y="554" type="curve" smooth="yes"/>
      <point x="123" y="648"/>
      <point x="191" y="711"/>
      <point x="304" y="711" type="curve" smooth="yes"/>
      <point x="383" y="711"/>
      <point x="445" y="679"/>
      <point x="490" y="618" type="curve"/>
      <point x="428" y="557" type="line"/>
      <point x="389" y="605"/>
      <point x="350" y="624"/>
      <point x="295" y="624" type="curve" smooth="yes"/>
      <point x="248" y="624"/>
      <point x="220" y="599"/>
      <point x="220" y="560" type="curve" smooth="yes"/>
      <point x="220" y="520"/>
      <point x="241" y="492"/>
      <point x="329" y="464" type="curve" smooth="yes"/>
      <point x="483" y="414"/>
      <point x="535" y="370"/>
      <point x="535" y="266" type="curve" smooth="yes"/>
      <point x="535" y="188"/>
      <point x="490" y="136"/>
      <point x="431" y="99" type="curve"/>
      <point x="462" y="72"/>
      <point x="477" y="38"/>
      <point x="477" y="-7" type="curve" smooth="yes"/>
      <point x="477" y="-101"/>
      <point x="409" y="-164"/>
    </contour>
    <contour>
      <point x="365" y="147" type="curve"/>
      <point x="415" y="175"/>
      <point x="440" y="211"/>
      <point x="440" y="258" type="curve" smooth="yes"/>
      <point x="440" y="312"/>
      <point x="415" y="342"/>
      <point x="308" y="375" type="curve" smooth="yes"/>
      <point x="280" y="384"/>
      <point x="256" y="391"/>
      <point x="233" y="401" type="curve"/>
      <point x="185" y="373"/>
      <point x="158" y="337"/>
      <point x="158" y="289" type="curve" smooth="yes"/>
      <point x="158" y="236"/>
      <point x="186" y="205"/>
      <point x="292" y="172" type="curve" smooth="yes"/>
      <point x="319" y="164"/>
      <point x="342" y="156"/>
    </contour>
  </outline>
</glyph>
<glyph name="dieresis" format="1">
  <advance width="600"/>
  <unicode hex="00A8"/>
  <outline>
    <contour>
      <point x="408" y="608" type="curve" smooth="yes"/>
      <point x="368" y="608"/>
      <point x="340" y="637"/>
      <point x="340" y="671" type="curve" smooth="yes"/>
      <point x="340" y="708"/>
      <point x="368" y="735"/>
      <point x="408" y="735" type="curve" smooth="yes"/>
      <point x="444" y="735"/>
      <point x="476" y="708"/>
      <point x="476" y="671" type="curve" smooth="yes"/>
      <point x="476" y="637"/>
      <point x="444" y="608"/>
    </contour>
    <contour>
      <point x="192" y="608" type="curve" smooth="yes"/>
      <point x="153" y="608"/>
      <point x="124" y="637"/>
      <point x="124" y="671" type="curve" smooth="yes"/>
      <point x="124" y="708"/>
      <point x="153" y="735"/>
      <point x="192" y="735" type="curve" smooth="yes"/>
      <point x="229" y="735"/>
      <point x="260" y="708"/>
      <point x="260" y="671" type="curve" smooth="yes"/>
      <point x="260" y="637"/>
      <point x="229" y="608"/>
    </contour>
  </outline>
</glyph>
<glyph name="copyright" format="1">
  <advance width="600"/>
  <unicode hex="00A9"/>
  <outline>
    <contour>
      <point x="299" y="-11" type="curve" smooth="yes"/>
      <point x="145" y="-11"/>
      <point x="51" y="136"/>
      <point x="51" y="350" type="curve" smooth="yes"/>
      <point x="51" y="564"/>
      <point x="145" y="711"/>
      <point x="299" y="711" type="curve" smooth="yes"/>
      <point x="455" y="711"/>
      <point x="550" y="564"/>
      <point x="550" y="350" type="curve" smooth="yes"/>
      <point x="550" y="136"/>
      <point x="455" y="-11"/>
    </contour>
    <contour>
      <point x="299" y="39" type="curve" smooth="yes"/>
      <point x="428" y="39"/>
      <point x="497" y="166"/>
      <point x="497" y="350" type="curve" smooth="yes"/>
      <point x="497" y="534"/>
      <point x="428" y="661"/>
      <point x="299" y="661" type="curve" smooth="yes"/>
      <point x="171" y="661"/>
      <point x="103" y="534"/>
      <point x="103" y="350" type="curve" smooth="yes"/>
      <point x="103" y="166"/>
      <point x="171" y="39"/>
    </contour>
    <contour>
      <point x="298" y="148" type="curve" smooth="yes"/>
      <point x="223" y="148"/>
      <point x="188" y="219"/>
      <point x="188" y="351" type="curve" smooth="yes"/>
      <point x="188" y="483"/>
      <point x="227" y="555"/>
      <point x="299" y="555" type="curve" smooth="yes"/>
      <point x="358" y="555"/>
      <point x="384" y="517"/>
      <point x="399" y="451" type="curve"/>
      <point x="341" y="433" type="line"/>
      <point x="330" y="485"/>
      <point x="321" y="498"/>
      <point x="299" y="498" type="curve" smooth="yes"/>
      <point x="265" y="498"/>
      <point x="250" y="453"/>
      <point x="250" y="352" type="curve" smooth="yes"/>
      <point x="250" y="247"/>
      <point x="266" y="205"/>
      <point x="300" y="205" type="curve" smooth="yes"/>
      <point x="322" y="205"/>
      <point x="333" y="220"/>
      <point x="346" y="269" type="curve"/>
      <point x="401" y="249" type="line"/>
      <point x="384" y="185"/>
      <point x="357" y="148"/>
    </contour>
  </outline>
</glyph>
<glyph name="ordfeminine" format="1">
  <advance width="600"/>
  <unicode hex="00AA"/>
  <outline>
    <contour>
      <point x="246" y="258" type="curve" smooth="yes"/>
      <point x="172" y="258"/>
      <point x="104" y="299"/>
      <point x="104" y="402" type="curve" smooth="yes"/>
      <point x="104" y="499"/>
      <point x="179" y="542"/>
      <point x="269" y="542" type="curve" smooth="yes"/>
      <point x="311" y="542"/>
      <point x="345" y="533"/>
      <point x="370" y="521" type="curve"/>
      <point x="370" y="560" type="line" smooth="yes"/>
      <point x="370" y="612"/>
      <point x="344" y="637"/>
      <point x="288" y="637" type="curve" smooth="yes"/>
      <point x="244" y="637"/>
      <point x="207" y="626"/>
      <point x="169" y="604" type="curve"/>
      <point x="137" y="674" type="line"/>
      <point x="182" y="696"/>
      <point x="237" y="711"/>
      <point x="300" y="711" type="curve" smooth="yes"/>
      <point x="404" y="711"/>
      <point x="462" y="665"/>
      <point x="462" y="563" type="curve" smooth="yes"/>
      <point x="462" y="267" type="line"/>
      <point x="370" y="267" type="line"/>
      <point x="370" y="308" type="line"/>
      <point x="341" y="281"/>
      <point x="299" y="258"/>
    </contour>
    <contour>
      <point x="267" y="330" type="curve" smooth="yes"/>
      <point x="313" y="330"/>
      <point x="349" y="352"/>
      <point x="370" y="378" type="curve"/>
      <point x="370" y="455" type="line"/>
      <point x="347" y="467"/>
      <point x="320" y="475"/>
      <point x="276" y="475" type="curve" smooth="yes"/>
      <point x="225" y="475"/>
      <point x="193" y="449"/>
      <point x="193" y="405" type="curve" smooth="yes"/>
      <point x="193" y="356"/>
      <point x="222" y="330"/>
    </contour>
  </outline>
</glyph>
<glyph name="guillemotleft" format="1">
  <advance width="600"/>
  <unicode hex="00AB"/>
  <outline>
    <contour>
      <point x="436" y="0" type="line"/>
      <point x="263" y="262" type="line"/>
      <point x="436" y="525" type="line"/>
      <point x="546" y="525" type="line"/>
      <point x="373" y="263" type="line"/>
      <point x="546" y="0" type="line"/>
    </contour>
    <contour>
      <point x="213" y="0" type="line"/>
      <point x="41" y="262" type="line"/>
      <point x="213" y="525" type="line"/>
      <point x="322" y="525" type="line"/>
      <point x="150" y="263" type="line"/>
      <point x="322" y="0" type="line"/>
    </contour>
  </outline>
</glyph>
<glyph name="degree" format="1">
  <advance width="600"/>
  <unicode hex="00B0"/>
  <outline>
    <contour>
      <point x="300" y="311" type="curve" smooth="yes"/>
      <point x="188" y="311"/>
      <point x="104" y="397"/>
      <point x="104" y="512" type="curve" smooth="yes"/>
      <point x="104" y="625"/>
      <point x="188" y="711"/>
      <point x="300" y="711" type="curve" smooth="yes"/>
      <point x="413" y="711"/>
      <point x="496" y="625"/>
      <point x="496" y="512" type="curve" smooth="yes"/>
      <point x="496" y="397"/>
      <point x="413" y="311"/>
    </contour>
    <contour>
      <point x="300" y="391" type="curve" smooth="yes"/>
      <point x="367" y="391"/>
      <point x="412" y="439"/>
      <point x="412" y="512" type="curve" smooth="yes"/>
      <point x="412" y="582"/>
      <point x="367" y="631"/>
      <point x="300" y="631" type="curve" smooth="yes"/>
      <point x="234" y="631"/>
      <point x="188" y="582"/>
      <point x="188" y="512" type="curve" smooth="yes"/>
      <point x="188" y="439"/>
      <point x="234" y="391"/>
    </contour>
  </outline>
</glyph>
<glyph name="acute" format="1">
  <advance width="600"/>
  <unicode hex="00B4"/>
  <outline>
    <contour>
      <point x="237" y="595" type="line"/>
      <point x="331" y="755" type="line"/>
      <point x="470" y="755" type="line"/>
      <point x="317" y="595" type="line"/>
    </contour>
  </outline>
</glyph>
<glyph name="paragraph" format="1">
  <advance width="600"/>
  <unicode hex="00B6"/>
  <outline>
    <contour>
      <point x="286" y="-185" type="line"/>
      <point x="286" y="292" type="line"/>
      <point x="250" y="292" type="line" smooth="yes"/>
      <point x="142" y="292"/>
      <point x="52" y="365"/>
      <point x="52" y="496" type="curve" smooth="yes"/>
      <point x="52" y="628"/>
      <point x="144" y="700"/>
      <point x="251" y="700" type="curve" smooth="yes"/>
      <point x="516" y="700" type="line"/>
      <point x="516" y="-185" type="line"/>
      <point x="436" y="-185" type="line"/>
      <point x="436" y="627" type="line"/>
      <point x="366" y="627" type="line"/>
      <point x="366" y="-185" type="line"/>
    </contour>
  </outline>
</glyph>
<glyph name="periodcentered" format="1">
  <advance width="600"/>
  <unicode hex="00B7"/>
  <outline>
    <contour>
      <point x="299" y="269" type="curve" smooth="yes"/>
      <point x="244" y="269"/>
      <point x="201" y="311"/>
      <point x="201" y="368" type="curve" smooth="yes"/>
      <point x="201" y="423"/>
      <point x="244" y="464"/>
      <point x="299" y="464" type="curve" smooth="yes"/>
      <point x="354" y="464"/>
      <point x="397" y="423"/>
      <point x="397" y="368" type="curve" smooth="yes"/>
      <point x="397" y="311"/>
      <point x="354" y="269"/>
    </contour>
  </outline>
</glyph>
<glyph name="cedilla" format="1">
  <advance width="600"/>
  <unicode hex="00B8"/>
  <outline>
    <contour>
      <point x="305" y="-193" type="curve" smooth="yes"/>
      <point x="260" y="-193"/>
      <point x="216" y="-179"/>
      <point x="179" y="-157" type="curve"/>
      <point x="198" y="-121" type="line"/>
      <point x="229" y="-139"/>
      <point x="261" y="-147"/>
      <point x="293" y="-147" type="curve" smooth="yes"/>
      <point x="337" y="-147"/>
      <point x="353" y="-130"/>
      <point x="353" y="-109" type="curve" smooth="yes"/>
      <point x="353" y="-90"/>
      <point x="343" y="-79"/>
      <point x="324" y="-79" type="curve" smooth="yes"/>
      <point x="306" y="-79"/>
      <point x="292" y="-85"/>
      <point x="280" y="-95" type="curve"/>
      <point x="243" y="-78" type="line"/>
      <point x="266" y="0" type="line"/>
      <point x="316" y="0" type="line"/>
      <point x="301" y="-48" type="line"/>
      <point x="314" y="-41"/>
      <point x="330" y="-36"/>
      <point x="352" y="-36" type="curve" smooth="yes"/>
      <point x="386" y="-36"/>
      <point x="422" y="-57"/>
      <point x="422" y="-106" type="curve" smooth="yes"/>
      <point x="422" y="-168"/>
      <point x="372" y="-193"/>
    </contour>
  </outline>
</glyph>
<glyph name="ordmasculine" format="1">
  <advance width="600"/>
  <unicode hex="00BA"/>
  <outline>
    <contour>
      <point x="299" y="259" type="curve" smooth="yes"/>
      <point x="187" y="259"/>
      <point x="104" y="337"/>
      <point x="104" y="485" type="curve" smooth="yes"/>
      <point x="104" y="634"/>
      <point x="190" y="711"/>
      <point x="301" y="711" type="curve" smooth="yes"/>
      <point x="412" y="711"/>
      <point x="496" y="636"/>
      <point x="496" y="487" type="curve" smooth="yes"/>
      <point x="496" y="339"/>
      <point x="411" y="259"/>
    </contour>
    <contour>
      <point x="300" y="338" type="curve" smooth="yes"/>
      <point x="364" y="338"/>
      <point x="403" y="387"/>
      <point x="403" y="486" type="curve" smooth="yes"/>
      <point x="403" y="586"/>
      <point x="364" y="632"/>
      <point x="300" y="632" type="curve" smooth="yes"/>
      <point x="236" y="632"/>
      <point x="197" y="586"/>
      <point x="197" y="486" type="curve" smooth="yes"/>
      <point x="197" y="387"/>
      <point x="236" y="338"/>
    </contour>
  </outline>
</glyph>
<glyph name="guillemotright" format="1">
  <advance width="600"/>
  <unicode hex="00BB"/>
  <outline>
    <contour>
      <point x="278" y="0" type="line"/>
      <point x="450" y="262" type="line"/>
      <point x="278" y="525" type="line"/>
      <point x="387" y="525" type="line"/>
      <point x="559" y="263" type="line"/>
      <point x="387" y="0" type="line"/>
    </contour>
    <contour>
      <point x="54" y="0" type="line"/>
      <point x="227" y="262" type="line"/>
      <point x="54" y="525" type="line"/>
      <point x="164" y="525" type="line"/>
      <point x="337" y="263" type="line"/>
      <point x="164" y="0" type="line"/>
    </contour>
  </outline>
</glyph>
<glyph name="questiondown" format="1">
  <advance width="600"/>
  <unicode hex="00BF"/>
  <outline>
    <contour>
      <point x="325" y="557" type="curve" smooth="yes"/>
      <point x="281" y="557"/>
      <point x="248" y="590"/>
      <point x="248" y="634" type="curve" smooth="yes"/>
      <point x="248" y="678"/>
      <point x="281" y="711"/>
      <point x="325" y="711" type="curve" smooth="yes"/>
      <point x="369" y="711"/>
      <point x="402" y="678"/>
      <point x="402" y="634" type="curve" smooth="yes"/>
      <point x="402" y="590"/>
      <point x="369" y="557"/>
    </contour>
    <contour>
      <point x="299" y="-11" type="curve" smooth="yes"/>
      <point x="164" y="-11"/>
      <point x="75" y="51"/>
      <point x="75" y="164" type="curve" smooth="yes"/>
      <point x="75" y="258"/>
      <point x="122" y="299"/>
      <point x="196" y="342" type="curve" smooth="yes"/>
      <point x="260" y="380"/>
      <point x="273" y="409"/>
      <point x="273" y="473" type="curve"/>
      <point x="375" y="473" type="line"/>
      <point x="375" y="381"/>
      <point x="359" y="338"/>
      <point x="257" y="278" type="curve" smooth="yes"/>
      <point x="208" y="249"/>
      <point x="182" y="224"/>
      <point x="182" y="173" type="curve" smooth="yes"/>
      <point x="182" y="117"/>
      <point x="223" y="82"/>
      <point x="302" y="82" type="curve" smooth="yes"/>
      <point x="378" y="82"/>
      <point x="432" y="112"/>
      <point x="484" y="157" type="curve"/>
      <point x="543" y="81" type="line"/>
      <point x="483" y="28"/>
      <point x="403" y="-11"/>
    </contour>
  </outline>
</glyph>
<glyph name="Aring" format="1">
  <advance width="600"/>
  <unicode hex="00C5"/>
  <outline>
    <contour>
      <point x="366" y="663" type="curve"/>
      <point x="549" y="0" type="line"/>
      <point x="441" y="0" type="line"/>
      <point x="400" y="162" type="line"/>
      <point x="198" y="162" type="line"/>
      <point x="156" y="0" type="line"/>
      <point x="52" y="0" type="line"/>
      <point x="52" y="0"/>
      <point x="235" y="663"/>
      <point x="235" y="662" type="curve"/>
      <point x="199" y="684"/>
      <point x="176" y="723"/>
      <point x="176" y="768" type="curve" smooth="yes"/>
      <point x="176" y="837"/>
      <point x="229" y="891"/>
      <point x="300" y="891" type="curve" smooth="yes"/>
      <point x="371" y="891"/>
      <point x="424" y="837"/>
      <point x="424" y="768" type="curve" smooth="yes"/>
      <point x="424" y="723"/>
      <point x="402" y="685"/>
    </contour>
    <contour>
      <point x="300" y="700" type="curve" smooth="yes"/>
      <point x="340" y="700"/>
      <point x="366" y="728"/>
      <point x="366" y="768" type="curve" smooth="yes"/>
      <point x="366" y="808"/>
      <point x="340" y="836"/>
      <point x="300" y="836" type="curve" smooth="yes"/>
      <point x="260" y="836"/>
      <point x="234" y="808"/>
      <point x="234" y="768" type="curve" smooth="yes"/>
      <point x="234" y="728"/>
      <point x="260" y="700"/>
    </contour>
    <contour>
      <point x="219" y="253" type="line"/>
      <point x="378" y="253" type="line"/>
      <point x="339" y="399" type="line" smooth="yes"/>
      <point x="320" y="471"/>
      <point x="307" y="547"/>
      <point x="298" y="598" type="curve"/>
      <point x="291" y="547"/>
      <point x="278" y="471"/>
      <point x="258" y="397" type="curve" smooth="yes"/>
    </contour>
  </outline>
</glyph>
<glyph name="AE" format="1">
  <advance width="600"/>
  <unicode hex="00C6"/>
  <outline>
    <contour>
      <point x="7" y="0" type="line"/>
      <point x="243" y="700" type="line"/>
      <point x="564" y="700" type="line"/>
      <point x="564" y="611" type="line"/>
      <point x="381" y="611" type="line"/>
      <point x="381" y="415" type="line"/>
      <point x="508" y="415" type="line"/>
      <point x="508" y="326" type="line"/>
      <point x="381" y="326" type="line"/>
      <point x="381" y="89" type="line"/>
      <point x="574" y="89" type="line"/>
      <point x="574" y="0" type="line"/>
      <point x="284" y="0" type="line"/>
      <point x="284" y="160" type="line"/>
      <point x="156" y="160" type="line"/>
      <point x="103" y="0" type="line"/>
    </contour>
    <contour>
      <point x="182" y="247" type="line"/>
      <point x="284" y="247" type="line"/>
      <point x="284" y="456" type="line" smooth="yes"/>
      <point x="284" y="512"/>
      <point x="286" y="569"/>
      <point x="287" y="601" type="curve"/>
      <point x="279" y="566"/>
      <point x="267" y="514"/>
      <point x="248" y="453" type="curve" smooth="yes"/>
    </contour>
  </outline>
</glyph>
<glyph name="Ccedilla" format="1">
  <advance width="600"/>
  <unicode hex="00C7"/>
  <outline>
    <contour>
      <point x="274" y="-8" type="line"/>
      <point x="139" y="15"/>
      <point x="64" y="147"/>
      <point x="64" y="350" type="curve" smooth="yes"/>
      <point x="64" y="576"/>
      <point x="162" y="711"/>
      <point x="319" y="711" type="curve" smooth="yes"/>
      <point x="430" y="711"/>
      <point x="490" y="657"/>
      <point x="532" y="558" type="curve"/>
      <point x="440" y="515" type="line"/>
      <point x="407" y="587"/>
      <point x="377" y="617"/>
      <point x="318" y="617" type="curve" smooth="yes"/>
      <point x="227" y="617"/>
      <point x="172" y="532"/>
      <point x="172" y="350" type="curve" smooth="yes"/>
      <point x="172" y="169"/>
      <point x="228" y="83"/>
      <point x="320" y="83" type="curve" smooth="yes"/>
      <point x="381" y="83"/>
      <point x="413" y="117"/>
      <point x="448" y="186" type="curve"/>
      <point x="535" y="139" type="line"/>
      <point x="494" y="53"/>
      <point x="431" y="-9"/>
      <point x="323" y="-11" type="curve"/>
      <point x="311" y="-48" type="line"/>
      <point x="324" y="-41"/>
      <point x="340" y="-36"/>
      <point x="362" y="-36" type="curve" smooth="yes"/>
      <point x="396" y="-36"/>
      <point x="432" y="-57"/>
      <point x="432" y="-106" type="curve" smooth="yes"/>
      <point x="432" y="-168"/>
      <point x="382" y="-193"/>
      <point x="315" y="-193" type="curve" smooth="yes"/>
      <point x="270" y="-193"/>
      <point x="226" y="-179"/>
      <point x="189" y="-157" type="curve"/>
      <point x="208" y="-121" type="line"/>
      <point x="239" y="-139"/>
      <point x="271" y="-147"/>
      <point x="303" y="-147" type="curve" smooth="yes"/>
      <point x="347" y="-147"/>
      <point x="363" y="-130"/>
      <point x="363" y="-109" type="curve" smooth="yes"/>
      <point x="363" y="-90"/>
      <point x="353" y="-79"/>
      <point x="334" y="-79" type="curve" smooth="yes"/>
      <point x="316" y="-79"/>
      <point x="302" y="-85"/>
      <point x="290" y="-95" type="curve"/>
      <point x="253" y="-78" type="line"/>
    </contour>
  </outline>
</glyph>
<glyph name="Eth" format="1">
  <advance width="600"/>
  <unicode hex="00D0"/>
  <outline>
    <contour>
      <point x="89" y="0" type="line"/>
      <point x="89" y="323" type="line"/>
      <point x="25" y="323" type="line"/>
      <point x="25" y="408" type="line"/>
      <point x="89" y="408" type="line"/>
      <point x="89" y="700" type="line"/>
      <point x="265" y="700" type="line" smooth="yes"/>
      <point x="436" y="700"/>
      <point x="538" y="590"/>
      <point x="538" y="355" type="curve" smooth="yes"/>
      <point x="538" y="105"/>
      <point x="429" y="0"/>
      <point x="252" y="0" type="curve" smooth="yes"/>
    </contour>
    <contour>
      <point x="196" y="92" type="line"/>
      <point x="260" y="92" type="line" smooth="yes"/>
      <point x="369" y="92"/>
      <point x="430" y="157"/>
      <point x="430" y="352" type="curve" smooth="yes"/>
      <point x="430" y="531"/>
      <point x="376" y="607"/>
      <point x="260" y="607" type="curve" smooth="yes"/>
      <point x="196" y="607" type="line"/>
      <point x="196" y="408" type="line"/>
      <point x="297" y="408" type="line"/>
      <point x="297" y="323" type="line"/>
      <point x="196" y="323" type="line"/>
    </contour>
  </outline>
</glyph>
<glyph name="Oslash" format="1">
  <advance width="600"/>
  <unicode hex="00D8"/>
  <outline>
    <contour>
      <point x="468" y="628" type="curve"/>
      <point x="514" y="566"/>
      <point x="539" y="472"/>
      <point x="539" y="350" type="curve" smooth="yes"/>
      <point x="539" y="122"/>
      <point x="448" y="-11"/>
      <point x="299" y="-11" type="curve" smooth="yes"/>
      <point x="261" y="-11"/>
      <point x="227" y="-3"/>
      <point x="198" y="14" type="curve"/>
      <point x="170" y="-50" type="line"/>
      <point x="79" y="-50" type="line"/>
      <point x="132" y="72" type="line"/>
      <point x="86" y="133"/>
      <point x="61" y="227"/>
      <point x="61" y="350" type="curve" smooth="yes"/>
      <point x="61" y="578"/>
      <point x="152" y="711"/>
      <point x="300" y="711" type="curve" smooth="yes"/>
      <point x="338" y="711"/>
      <point x="372" y="703"/>
      <point x="402" y="686" type="curve"/>
      <point x="430" y="750" type="line"/>
      <point x="521" y="750" type="line"/>
      <point x="521" y="750"/>
      <point x="494" y="689"/>
    </contour>
    <contour>
      <point x="184" y="190" type="curve"/>
      <point x="364" y="600" type="line"/>
      <point x="346" y="614"/>
      <point x="323" y="621"/>
      <point x="298" y="621" type="curve" smooth="yes"/>
      <point x="215" y="621"/>
      <point x="168" y="543"/>
      <point x="168" y="350" type="curve" smooth="yes"/>
      <point x="168" y="283"/>
      <point x="174" y="231"/>
    </contour>
    <contour>
      <point x="416" y="509" type="curve"/>
      <point x="416" y="510"/>
      <point x="236" y="101"/>
      <point x="236" y="101" type="curve"/>
      <point x="254" y="86"/>
      <point x="276" y="80"/>
      <point x="301" y="80" type="curve" smooth="yes"/>
      <point x="384" y="80"/>
      <point x="432" y="157"/>
      <point x="432" y="350" type="curve" smooth="yes"/>
      <point x="432" y="417"/>
      <point x="426" y="469"/>
    </contour>
  </outline>
</glyph>
<glyph name="Thorn" format="1">
  <advance width="600"/>
  <unicode hex="00DE"/>
  <outline>
    <contour>
      <point x="91" y="0" type="line"/>
      <point x="91" y="700" type="line"/>
      <point x="199" y="700" type="line"/>
      <point x="199" y="575" type="line"/>
      <point x="328" y="575" type="line" smooth="yes"/>
      <point x="453" y="575"/>
      <point x="545" y="512"/>
      <point x="545" y="365" type="curve" smooth="yes"/>
      <point x="545" y="217"/>
      <point x="449" y="147"/>
      <point x="316" y="147" type="curve" smooth="yes"/>
      <point x="199" y="147" type="line"/>
      <point x="199" y="0" type="line"/>
    </contour>
    <contour>
      <point x="199" y="239" type="line"/>
      <point x="316" y="239" type="line" smooth="yes"/>
      <point x="400" y="239"/>
      <point x="437" y="278"/>
      <point x="437" y="362" type="curve" smooth="yes"/>
      <point x="437" y="443"/>
      <point x="400" y="483"/>
      <point x="323" y="483" type="curve" smooth="yes"/>
      <point x="199" y="483" type="line"/>
    </contour>
  </outline>
</glyph>
<glyph name="germandbls" format="1">
  <advance width="600"/>
  <unicode hex="00DF"/>
  <outline>
    <contour>
      <point x="89" y="-193" type="line"/>
      <point x="89" y="512" type="line" smooth="yes"/>
      <point x="89" y="654"/>
      <point x="168" y="726"/>
      <point x="288" y="726" type="curve" smooth="yes"/>
      <point x="404" y="726"/>
      <point x="483" y="656"/>
      <point x="483" y="547" type="curve" smooth="yes"/>
      <point x="483" y="465"/>
      <point x="442" y="426"/>
      <point x="395" y="403" type="curve"/>
      <point x="465" y="387"/>
      <point x="536" y="339"/>
      <point x="536" y="227" type="curve" smooth="yes"/>
      <point x="536" y="64"/>
      <point x="430" y="0"/>
      <point x="282" y="0" type="curve" smooth="yes"/>
      <point x="267" y="0" type="line"/>
      <point x="267" y="86" type="line"/>
      <point x="284" y="86" type="line" smooth="yes"/>
      <point x="379" y="86"/>
      <point x="430" y="130"/>
      <point x="430" y="222" type="curve" smooth="yes"/>
      <point x="430" y="316"/>
      <point x="365" y="352"/>
      <point x="283" y="352" type="curve" smooth="yes"/>
      <point x="267" y="352" type="line"/>
      <point x="267" y="438" type="line"/>
      <point x="285" y="438" type="line" smooth="yes"/>
      <point x="347" y="438"/>
      <point x="381" y="470"/>
      <point x="381" y="538" type="curve" smooth="yes"/>
      <point x="381" y="601"/>
      <point x="346" y="638"/>
      <point x="286" y="638" type="curve" smooth="yes"/>
      <point x="231" y="638"/>
      <point x="195" y="599"/>
      <point x="195" y="522" type="curve" smooth="yes"/>
      <point x="195" y="-142" type="line"/>
    </contour>
  </outline>
</glyph>
<glyph name="ae" format="1">
  <advance width="600"/>
  <unicode hex="00E6"/>
  <outline>
    <contour>
      <point x="164" y="-11" type="curve" smooth="yes"/>
      <point x="79" y="-11"/>
      <point x="22" y="42"/>
      <point x="22" y="160" type="curve" smooth="yes"/>
      <point x="22" y="278"/>
      <point x="78" y="332"/>
      <point x="167" y="332" type="curve" smooth="yes"/>
      <point x="202" y="332"/>
      <point x="227" y="324"/>
      <point x="249" y="310" type="curve"/>
      <point x="249" y="380" type="line" smooth="yes"/>
      <point x="249" y="434"/>
      <point x="229" y="458"/>
      <point x="183" y="458" type="curve" smooth="yes"/>
      <point x="148" y="458"/>
      <point x="120" y="444"/>
      <point x="82" y="417" type="curve"/>
      <point x="46" y="484" type="line"/>
      <point x="89" y="515"/>
      <point x="137" y="536"/>
      <point x="191" y="536" type="curve" smooth="yes"/>
      <point x="258" y="536"/>
      <point x="290" y="509"/>
      <point x="304" y="468" type="curve"/>
      <point x="327" y="509"/>
      <point x="363" y="536"/>
      <point x="417" y="536" type="curve" smooth="yes"/>
      <point x="524" y="536"/>
      <point x="574" y="440"/>
      <point x="574" y="266" type="curve" smooth="yes"/>
      <point x="574" y="256"/>
      <point x="574" y="244"/>
      <point x="573" y="236" type="curve"/>
      <point x="334" y="236" type="line"/>
      <point x="338" y="125"/>
      <point x="363" y="67"/>
      <point x="415" y="67" type="curve" smooth="yes"/>
      <point x="454" y="67"/>
      <point x="475" y="86"/>
      <point x="505" y="130" type="curve"/>
      <point x="565" y="84" type="line"/>
      <point x="526" y="26"/>
      <point x="485" y="-11"/>
      <point x="411" y="-11" type="curve" smooth="yes"/>
      <point x="363" y="-11"/>
      <point x="322" y="10"/>
      <point x="294" y="54" type="curve"/>
      <point x="259" y="14"/>
      <point x="224" y="-11"/>
    </contour>
    <contour>
      <point x="335" y="306" type="curve"/>
      <point x="486" y="306" type="line"/>
      <point x="483" y="402"/>
      <point x="464" y="460"/>
      <point x="413" y="460" type="curve" smooth="yes"/>
      <point x="368" y="460"/>
      <point x="340" y="415"/>
    </contour>
    <contour>
      <point x="176" y="63" type="curve" smooth="yes"/>
      <point x="206" y="63"/>
      <point x="235" y="79"/>
      <point x="262" y="114" type="curve"/>
      <point x="253" y="148"/>
      <point x="248" y="195"/>
      <point x="247" y="243" type="curve"/>
      <point x="228" y="255"/>
      <point x="209" y="261"/>
      <point x="175" y="261" type="curve" smooth="yes"/>
      <point x="129" y="261"/>
      <point x="110" y="229"/>
      <point x="110" y="164" type="curve" smooth="yes"/>
      <point x="110" y="95"/>
      <point x="132" y="63"/>
    </contour>
  </outline>
</glyph>
<glyph name="ccedilla" format="1">
  <advance width="600"/>
  <unicode hex="00E7"/>
  <outline>
    <contour>
      <point x="290" y="-8" type="curve"/>
      <point x="173" y="8"/>
      <point x="83" y="98"/>
      <point x="83" y="262" type="curve" smooth="yes"/>
      <point x="83" y="445"/>
      <point x="199" y="536"/>
      <point x="335" y="536" type="curve" smooth="yes"/>
      <point x="418" y="536"/>
      <point x="475" y="507"/>
      <point x="522" y="458" type="curve"/>
      <point x="455" y="388" type="line"/>
      <point x="419" y="425"/>
      <point x="389" y="447"/>
      <point x="329" y="447" type="curve" smooth="yes"/>
      <point x="242" y="447"/>
      <point x="190" y="374"/>
      <point x="190" y="266" type="curve" smooth="yes"/>
      <point x="190" y="152"/>
      <point x="235" y="78"/>
      <point x="333" y="78" type="curve" smooth="yes"/>
      <point x="387" y="78"/>
      <point x="427" y="105"/>
      <point x="462" y="145" type="curve"/>
      <point x="525" y="80" type="line"/>
      <point x="482" y="29"/>
      <point x="423" y="-8"/>
      <point x="340" y="-11" type="curve"/>
      <point x="328" y="-48" type="line"/>
      <point x="341" y="-41"/>
      <point x="357" y="-36"/>
      <point x="379" y="-36" type="curve" smooth="yes"/>
      <point x="413" y="-36"/>
      <point x="449" y="-57"/>
      <point x="449" y="-106" type="curve" smooth="yes"/>
      <point x="449" y="-168"/>
      <point x="399" y="-193"/>
      <point x="332" y="-193" type="curve" smooth="yes"/>
      <point x="287" y="-193"/>
      <point x="243" y="-179"/>
      <point x="206" y="-157" type="curve"/>
      <point x="225" y="-121" type="line"/>
      <point x="256" y="-139"/>
      <point x="288" y="-147"/>
      <point x="320" y="-147" type="curve" smooth="yes"/>
      <point x="364" y="-147"/>
      <point x="380" y="-130"/>
      <point x="380" y="-109" type="curve" smooth="yes"/>
      <point x="380" y="-90"/>
      <point x="370" y="-79"/>
      <point x="351" y="-79" type="curve" smooth="yes"/>
      <point x="333" y="-79"/>
      <point x="319" y="-85"/>
      <point x="307" y="-95" type="curve"/>
      <point x="270" y="-78" type="line"/>
      <point x="270" y="-78"/>
      <point x="291" y="-8"/>
    </contour>
  </outline>
</glyph>
<glyph name="eth" format="1">
  <advance width="600"/>
  <unicode hex="00F0"/>
  <outline>
    <contour>
      <point x="299" y="-11" type="curve" smooth="yes"/>
      <point x="174" y="-11"/>
      <point x="66" y="74"/>
      <point x="66" y="233" type="curve" smooth="yes"/>
      <point x="66" y="393"/>
      <point x="170" y="475"/>
      <point x="275" y="475" type="curve" smooth="yes"/>
      <point x="358" y="475"/>
      <point x="406" y="446"/>
      <point x="439" y="400" type="curve"/>
      <point x="424" y="470"/>
      <point x="394" y="530"/>
      <point x="342" y="570" type="curve"/>
      <point x="343" y="570"/>
      <point x="291" y="514"/>
      <point x="291" y="514" type="curve"/>
      <point x="237" y="559" type="line"/>
      <point x="280" y="607" type="line"/>
      <point x="253" y="619"/>
      <point x="222" y="625"/>
      <point x="189" y="628" type="curve"/>
      <point x="189" y="711" type="line"/>
      <point x="246" y="708"/>
      <point x="296" y="695"/>
      <point x="341" y="672" type="curve"/>
      <point x="382" y="717" type="line"/>
      <point x="436" y="672" type="line"/>
      <point x="399" y="632" type="line"/>
      <point x="485" y="559"/>
      <point x="534" y="440"/>
      <point x="534" y="291" type="curve" smooth="yes"/>
      <point x="534" y="80"/>
      <point x="439" y="-11"/>
    </contour>
    <contour>
      <point x="300" y="76" type="curve" smooth="yes"/>
      <point x="373" y="76"/>
      <point x="427" y="125"/>
      <point x="427" y="234" type="curve" smooth="yes"/>
      <point x="427" y="344"/>
      <point x="373" y="389"/>
      <point x="295" y="389" type="curve" smooth="yes"/>
      <point x="220" y="389"/>
      <point x="172" y="340"/>
      <point x="172" y="234" type="curve" smooth="yes"/>
      <point x="172" y="124"/>
      <point x="227" y="76"/>
    </contour>
  </outline>
</glyph>
<glyph name="oslash" format="1">
  <advance width="600"/>
  <unicode hex="00F8"/>
  <outline>
    <contour>
      <point x="464" y="472" type="line"/>
      <point x="509" y="427"/>
      <point x="536" y="358"/>
      <point x="536" y="265" type="curve" smooth="yes"/>
      <point x="536" y="86"/>
      <point x="430" y="-11"/>
      <point x="299" y="-11" type="curve" smooth="yes"/>
      <point x="265" y="-11"/>
      <point x="233" y="-5"/>
      <point x="204" y="8" type="curve"/>
      <point x="171" y="-50" type="line"/>
      <point x="77" y="-50" type="line"/>
      <point x="136" y="55" type="line"/>
      <point x="91" y="101"/>
      <point x="64" y="171"/>
      <point x="64" y="263" type="curve" smooth="yes"/>
      <point x="64" y="443"/>
      <point x="170" y="536"/>
      <point x="301" y="536" type="curve" smooth="yes"/>
      <point x="335" y="536"/>
      <point x="367" y="530"/>
      <point x="396" y="518" type="curve"/>
      <point x="428" y="575" type="line"/>
      <point x="522" y="575" type="line"/>
    </contour>
    <contour>
      <point x="189" y="149" type="curve"/>
      <point x="352" y="440" type="line"/>
      <point x="337" y="448"/>
      <point x="319" y="451"/>
      <point x="300" y="451" type="curve" smooth="yes"/>
      <point x="222" y="451"/>
      <point x="170" y="390"/>
      <point x="170" y="264" type="curve" smooth="yes"/>
      <point x="170" y="216"/>
      <point x="177" y="179"/>
    </contour>
    <contour>
      <point x="411" y="377" type="curve"/>
      <point x="247" y="85" type="line"/>
      <point x="263" y="78"/>
      <point x="281" y="74"/>
      <point x="300" y="74" type="curve" smooth="yes"/>
      <point x="378" y="74"/>
      <point x="430" y="138"/>
      <point x="430" y="264" type="curve" smooth="yes"/>
      <point x="430" y="311"/>
      <point x="423" y="348"/>
    </contour>
  </outline>
</glyph>
<glyph name="Lslash" format="1">
  <advance width="600"/>
  <unicode hex="0141"/>
  <outline>
    <contour>
      <point x="113" y="0" type="line"/>
      <point x="113" y="234" type="line"/>
      <point x="50" y="187" type="line"/>
      <point x="50" y="296" type="line"/>
      <point x="113" y="343" type="line"/>
      <point x="113" y="700" type="line"/>
      <point x="220" y="700" type="line"/>
      <point x="220" y="420" type="line"/>
      <point x="359" y="529" type="line"/>
      <point x="359" y="419" type="line"/>
      <point x="220" y="311" type="line"/>
      <point x="220" y="95" type="line"/>
      <point x="530" y="95" type="line"/>
      <point x="530" y="0" type="line"/>
    </contour>
  </outline>
</glyph>
<glyph name="lslash" format="1">
  <advance width="600"/>
  <unicode hex="0142"/>
  <outline>
    <contour>
      <point x="214" y="257" type="line"/>
      <point x="127" y="203" type="line"/>
      <point x="127" y="305" type="line"/>
      <point x="214" y="359" type="line"/>
      <point x="214" y="678" type="line"/>
      <point x="321" y="729" type="line"/>
      <point x="321" y="729"/>
      <point x="321" y="427"/>
      <point x="321" y="426" type="curve"/>
      <point x="429" y="494" type="line"/>
      <point x="429" y="392" type="line"/>
      <point x="321" y="324" type="line"/>
      <point x="321" y="325"/>
      <point x="321" y="153"/>
      <point x="321" y="153" type="curve" smooth="yes"/>
      <point x="321" y="102"/>
      <point x="346" y="83"/>
      <point x="391" y="83" type="curve" smooth="yes"/>
      <point x="435" y="83"/>
      <point x="468" y="94"/>
      <point x="491" y="104" type="curve"/>
      <point x="476" y="12" type="line"/>
      <point x="454" y="2"/>
      <point x="408" y="-11"/>
      <point x="361" y="-11" type="curve" smooth="yes"/>
      <point x="273" y="-11"/>
      <point x="214" y="34"/>
      <point x="214" y="135" type="curve" smooth="yes"/>
    </contour>
  </outline>
</glyph>
<glyph name="OE" format="1">
  <advance width="600"/>
  <unicode hex="0152"/>
  <outline>
    <contour>
      <point x="205" y="-11" type="curve" smooth="yes"/>
      <point x="90" y="-11"/>
      <point x="30" y="110"/>
      <point x="30" y="350" type="curve" smooth="yes"/>
      <point x="30" y="590"/>
      <point x="90" y="711"/>
      <point x="206" y="711" type="curve" smooth="yes"/>
      <point x="255" y="711"/>
      <point x="292" y="678"/>
      <point x="312" y="630" type="curve"/>
      <point x="312" y="700" type="line"/>
      <point x="568" y="700" type="line"/>
      <point x="568" y="611" type="line"/>
      <point x="388" y="611" type="line"/>
      <point x="388" y="415" type="line"/>
      <point x="518" y="415" type="line"/>
      <point x="518" y="326" type="line"/>
      <point x="388" y="326" type="line"/>
      <point x="388" y="89" type="line"/>
      <point x="577" y="89" type="line"/>
      <point x="577" y="0" type="line"/>
      <point x="312" y="0" type="line"/>
      <point x="312" y="71" type="line"/>
      <point x="291" y="21"/>
      <point x="257" y="-11"/>
    </contour>
    <contour>
      <point x="212" y="76" type="curve" smooth="yes"/>
      <point x="263" y="76"/>
      <point x="296" y="146"/>
      <point x="296" y="350" type="curve" smooth="yes"/>
      <point x="296" y="553"/>
      <point x="262" y="624"/>
      <point x="210" y="624" type="curve" smooth="yes"/>
      <point x="157" y="624"/>
      <point x="128" y="554"/>
      <point x="128" y="350" type="curve" smooth="yes"/>
      <point x="128" y="147"/>
      <point x="158" y="76"/>
    </contour>
  </outline>
</glyph>
<glyph name="oe" format="1">
  <advance width="600"/>
  <unicode hex="0153"/>
  <outline>
    <contour>
      <point x="187" y="-11" type="curve" smooth="yes"/>
      <point x="83" y="-11"/>
      <point x="22" y="83"/>
      <point x="22" y="261" type="curve" smooth="yes"/>
      <point x="22" y="440"/>
      <point x="81" y="536"/>
      <point x="188" y="536" type="curve" smooth="yes"/>
      <point x="249" y="536"/>
      <point x="288" y="500"/>
      <point x="309" y="448" type="curve"/>
      <point x="330" y="501"/>
      <point x="366" y="536"/>
      <point x="424" y="536" type="curve" smooth="yes"/>
      <point x="524" y="536"/>
      <point x="577" y="438"/>
      <point x="577" y="261" type="curve" smooth="yes"/>
      <point x="577" y="252"/>
      <point x="576" y="242"/>
      <point x="576" y="235" type="curve"/>
      <point x="350" y="235" type="line"/>
      <point x="353" y="126"/>
      <point x="377" y="67"/>
      <point x="426" y="67" type="curve" smooth="yes"/>
      <point x="461" y="67"/>
      <point x="478" y="86"/>
      <point x="507" y="130" type="curve"/>
      <point x="569" y="89" type="line"/>
      <point x="533" y="30"/>
      <point x="494" y="-11"/>
      <point x="422" y="-11" type="curve" smooth="yes"/>
      <point x="366" y="-11"/>
      <point x="326" y="26"/>
      <point x="305" y="78" type="curve"/>
      <point x="284" y="25"/>
      <point x="248" y="-11"/>
    </contour>
    <contour>
      <point x="350" y="304" type="curve"/>
      <point x="489" y="304" type="line"/>
      <point x="486" y="403"/>
      <point x="468" y="460"/>
      <point x="422" y="460" type="curve" smooth="yes"/>
      <point x="382" y="460"/>
      <point x="356" y="414"/>
    </contour>
    <contour>
      <point x="189" y="69" type="curve" smooth="yes"/>
      <point x="239" y="69"/>
      <point x="265" y="129"/>
      <point x="265" y="262" type="curve" smooth="yes"/>
      <point x="265" y="398"/>
      <point x="238" y="456"/>
      <point x="187" y="456" type="curve" smooth="yes"/>
      <point x="136" y="456"/>
      <point x="113" y="398"/>
      <point x="113" y="263" type="curve" smooth="yes"/>
      <point x="113" y="128"/>
      <point x="137" y="69"/>
    </contour>
  </outline>
</glyph>
<glyph name="florin" format="1">
  <advance width="600"/>
  <unicode hex="0192"/>
  <outline>
    <contour>
      <point x="107" y="-193" type="line"/>
      <point x="214" y="410" type="line"/>
      <point x="120" y="410" type="line"/>
      <point x="120" y="499" type="line"/>
      <point x="229" y="499" type="line"/>
      <point x="238" y="546" type="line" smooth="yes"/>
      <point x="261" y="669"/>
      <point x="332" y="711"/>
      <point x="424" y="711" type="curve" smooth="yes"/>
      <point x="482" y="711"/>
      <point x="511" y="699"/>
      <point x="532" y="689" type="curve"/>
      <point x="532" y="594" type="line"/>
      <point x="512" y="605"/>
      <point x="480" y="621"/>
      <point x="432" y="621" type="curve" smooth="yes"/>
      <point x="388" y="621"/>
      <point x="354" y="605"/>
      <point x="343" y="550" type="curve" smooth="yes"/>
      <point x="333" y="499" type="line"/>
      <point x="466" y="499" type="line"/>
      <point x="466" y="410" type="line"/>
      <point x="320" y="410" type="line"/>
      <point x="222" y="-142" type="line"/>
    </contour>
  </outline>
</glyph>
<glyph name="circumflex" format="1">
  <advance width="600"/>
  <unicode hex="02C6"/>
  <outline>
    <contour>
      <point x="124" y="595" type="line"/>
      <point x="249" y="755" type="line"/>
      <point x="351" y="755" type="line"/>
      <point x="476" y="595" type="line"/>
      <point x="395" y="595" type="line"/>
      <point x="299" y="686" type="line"/>
      <point x="203" y="595" type="line"/>
    </contour>
  </outline>
</glyph>
<glyph name="caron" format="1">
  <advance width="600"/>
  <unicode hex="02C7"/>
  <outline>
    <contour>
      <point x="249" y="595" type="line"/>
      <point x="124" y="755" type="line"/>
      <point x="205" y="755" type="line"/>
      <point x="301" y="664" type="line"/>
      <point x="397" y="755" type="line"/>
      <point x="476" y="755" type="line"/>
      <point x="351" y="595" type="line"/>
    </contour>
  </outline>
</glyph>
<glyph name="breve" format="1">
  <advance width="600"/>
  <unicode hex="02D8"/>
  <outline>
    <contour>
      <point x="299" y="595" type="curve" smooth="yes"/>
      <point x="197" y="595"/>
      <point x="134" y="654"/>
      <point x="124" y="755" type="curve"/>
      <point x="199" y="755" type="line"/>
      <point x="205" y="696"/>
      <point x="237" y="664"/>
      <point x="301" y="664" type="curve" smooth="yes"/>
      <point x="360" y="664"/>
      <point x="395" y="694"/>
      <point x="402" y="755" type="curve"/>
      <point x="476" y="755" type="line"/>
      <point x="466" y="654"/>
      <point x="407" y="595"/>
    </contour>
  </outline>
</glyph>
<glyph name="dotaccent" format="1">
  <advance width="600"/>
  <unicode hex="02D9"/>
  <outline>
    <contour>
      <point x="300" y="601" type="curve" smooth="yes"/>
      <point x="264" y="601"/>
      <point x="233" y="631"/>
      <point x="233" y="666" type="curve" smooth="yes"/>
      <point x="233" y="703"/>
      <point x="264" y="733"/>
      <point x="300" y="733" type="curve" smooth="yes"/>
      <point x="336" y="733"/>
      <point x="367" y="703"/>
      <point x="367" y="666" type="curve" smooth="yes"/>
      <point x="367" y="631"/>
      <point x="336" y="601"/>
    </contour>
  </outline>
</glyph>
<glyph name="ring" format="1">
  <advance width="600"/>
  <unicode hex="02DA"/>
  <outline>
    <contour>
      <point x="300" y="598" type="curve" smooth="yes"/>
      <point x="229" y="598"/>
      <point x="176" y="652"/>
      <point x="176" y="721" type="curve" smooth="yes"/>
      <point x="176" y="790"/>
      <point x="229" y="844"/>
      <point x="300" y="844" type="curve" smooth="yes"/>
      <point x="371" y="844"/>
      <point x="424" y="790"/>
      <point x="424" y="721" type="curve" smooth="yes"/>
      <point x="424" y="652"/>
      <point x="371" y="598"/>
    </contour>
    <contour>
      <point x="300" y="653" type="curve" smooth="yes"/>
      <point x="340" y="653"/>
      <point x="366" y="681"/>
      <point x="366" y="721" type="curve" smooth="yes"/>
      <point x="366" y="761"/>
      <point x="340" y="789"/>
      <point x="300" y="789" type="curve" smooth="yes"/>
      <point x="260" y="789"/>
      <point x="234" y="761"/>
      <point x="234" y="721" type="curve" smooth="yes"/>
      <point x="234" y="681"/>
      <point x="260" y="653"/>
    </contour>
  </outline>
</glyph>
<glyph name="ogonek" format="1">
  <advance width="600"/>
  <unicode hex="02DB"/>
  <outline>
    <contour>
      <point x="294" y="-193" type="curve" smooth="yes"/>
      <point x="235" y="-193"/>
      <point x="200" y="-160"/>
      <point x="200" y="-111" type="curve" smooth="yes"/>
      <point x="200" y="-68"/>
      <point x="234" y="-32"/>
      <point x="280" y="0" type="curve"/>
      <point x="335" y="0" type="line"/>
      <point x="292" y="-39"/>
      <point x="274" y="-65"/>
      <point x="274" y="-100" type="curve" smooth="yes"/>
      <point x="274" y="-124"/>
      <point x="291" y="-141"/>
      <point x="318" y="-141" type="curve" smooth="yes"/>
      <point x="347" y="-141"/>
      <point x="374" y="-134"/>
      <point x="408" y="-119" type="curve"/>
      <point x="424" y="-152" type="line"/>
      <point x="384" y="-176"/>
      <point x="337" y="-193"/>
    </contour>
  </outline>
</glyph>
<glyph name="tilde" format="1">
  <advance width="600"/>
  <unicode hex="02DC"/>
  <outline>
    <contour>
      <point x="377" y="596" type="curve" smooth="yes"/>
      <point x="348" y="596"/>
      <point x="326" y="603"/>
      <point x="299" y="622" type="curve" smooth="yes"/>
      <point x="256" y="653"/>
      <point x="245" y="661"/>
      <point x="225" y="661" type="curve" smooth="yes"/>
      <point x="205" y="661"/>
      <point x="193" y="646"/>
      <point x="187" y="599" type="curve"/>
      <point x="113" y="599" type="line"/>
      <point x="113" y="688"/>
      <point x="161" y="737"/>
      <point x="223" y="737" type="curve" smooth="yes"/>
      <point x="253" y="737"/>
      <point x="276" y="730"/>
      <point x="302" y="712" type="curve" smooth="yes"/>
      <point x="344" y="681"/>
      <point x="358" y="672"/>
      <point x="376" y="672" type="curve" smooth="yes"/>
      <point x="397" y="672"/>
      <point x="409" y="691"/>
      <point x="414" y="734" type="curve"/>
      <point x="488" y="734" type="line"/>
      <point x="488" y="645"/>
      <point x="440" y="596"/>
    </contour>
  </outline>
</glyph>
<glyph name="hungarumlaut" format="1">
  <advance width="600"/>
  <unicode hex="02DD"/>
  <outline>
    <contour>
      <point x="298" y="595" type="line"/>
      <point x="386" y="755" type="line"/>
      <point x="514" y="755" type="line"/>
      <point x="374" y="595" type="line"/>
    </contour>
    <contour>
      <point x="106" y="595" type="line"/>
      <point x="195" y="755" type="line"/>
      <point x="322" y="755" type="line"/>
      <point x="182" y="595" type="line"/>
    </contour>
  </outline>
</glyph>
<glyph name="endash" format="1">
  <advance width="600"/>
  <unicode hex="2013"/>
  <outline>
    <contour>
      <point x="93" y="314" type="line"/>
      <point x="93" y="412" type="line"/>
      <point x="507" y="412" type="line"/>
      <point x="507" y="314" type="line"/>
    </contour>
  </outline>
</glyph>
<glyph name="emdash" format="1">
  <advance width="600"/>
  <unicode hex="2014"/>
  <outline>
    <contour>
      <point x="34" y="314" type="line"/>
      <point x="34" y="412" type="line"/>
      <point x="566" y="412" type="line"/>
      <point x="566" y="314" type="line"/>
    </contour>
  </outline>
</glyph>
<glyph name="quoteleft" format="1">
  <advance width="600"/>
  <unicode hex="2018"/>
  <unicode hex="02BB"/>
  <outline>
    <contour>
      <point x="198" y="413" type="line"/>
      <point x="285" y="700" type="line"/>
      <point x="367" y="700" type="line"/>
      <point x="350" y="413" type="line"/>
    </contour>
  </outline>
</glyph>
<glyph name="quoteright" format="1">
  <advance width="600"/>
  <unicode hex="2019"/>
  <unicode hex="02BC"/>
  <outline>
    <contour>
      <point x="233" y="413" type="line"/>
      <point x="250" y="700" type="line"/>
      <point x="402" y="700" type="line"/>
      <point x="315" y="413" type="line"/>
    </contour>
  </outline>
</glyph>
<glyph name="quotesinglbase" format="1">
  <advance width="600"/>
  <unicode hex="201A"/>
  <outline>
    <contour>
      <point x="232" y="-118" type="line"/>
      <point x="248" y="161" type="line"/>
      <point x="397" y="161" type="line"/>
      <point x="312" y="-118" type="line"/>
    </contour>
  </outline>
</glyph>
<glyph name="quotedblleft" format="1">
  <advance width="600"/>
  <unicode hex="201C"/>
  <outline>
    <contour>
      <point x="326" y="413" type="line"/>
      <point x="408" y="700" type="line"/>
      <point x="485" y="700" type="line"/>
      <point x="467" y="413" type="line"/>
    </contour>
    <contour>
      <point x="86" y="413" type="line"/>
      <point x="168" y="700" type="line"/>
      <point x="245" y="700" type="line"/>
      <point x="226" y="413" type="line"/>
    </contour>
  </outline>
</glyph>
<glyph name="quotedblright" format="1">
  <advance width="600"/>
  <unicode hex="201D"/>
  <outline>
    <contour>
      <point x="355" y="413" type="line"/>
      <point x="374" y="700" type="line"/>
      <point x="514" y="700" type="line"/>
      <point x="432" y="413" type="line"/>
    </contour>
    <contour>
      <point x="115" y="413" type="line"/>
      <point x="133" y="700" type="line"/>
      <point x="274" y="700" type="line"/>
      <point x="192" y="413" type="line"/>
    </contour>
  </outline>
</glyph>
<glyph name="quotedblbase" format="1">
  <advance width="600"/>
  <unicode hex="201E"/>
  <outline>
    <contour>
      <point x="363" y="-116" type="line"/>
      <point x="381" y="157" type="line"/>
      <point x="521" y="157" type="line"/>
      <point x="440" y="-116" type="line"/>
    </contour>
    <contour>
      <point x="102" y="-116" type="line"/>
      <point x="119" y="157" type="line"/>
      <point x="260" y="157" type="line"/>
      <point x="178" y="-116" type="line"/>
    </contour>
  </outline>
</glyph>
<glyph name="dagger" format="1">
  <advance width="600"/>
  <unicode hex="2020"/>
  <outline>
    <contour>
      <point x="251" y="-100" type="line"/>
      <point x="251" y="387" type="line"/>
      <point x="70" y="387" type="line"/>
      <point x="70" y="479" type="line"/>
      <point x="251" y="479" type="line"/>
      <point x="251" y="700" type="line"/>
      <point x="349" y="700" type="line"/>
      <point x="349" y="479" type="line"/>
      <point x="530" y="479" type="line"/>
      <point x="530" y="387" type="line"/>
      <point x="349" y="387" type="line"/>
      <point x="349" y="-100" type="line"/>
    </contour>
  </outline>
</glyph>
<glyph name="daggerdbl" format="1">
  <advance width="600"/>
  <unicode hex="2021"/>
  <outline>
    <contour>
      <point x="251" y="-100" type="line"/>
      <point x="251" y="121" type="line"/>
      <point x="70" y="121" type="line"/>
      <point x="70" y="212" type="line"/>
      <point x="251" y="212" type="line"/>
      <point x="251" y="388" type="line"/>
      <point x="70" y="388" type="line"/>
      <point x="70" y="479" type="line"/>
      <point x="251" y="479" type="line"/>
      <point x="251" y="700" type="line"/>
      <point x="349" y="700" type="line"/>
      <point x="349" y="479" type="line"/>
      <point x="530" y="479" type="line"/>
      <point x="530" y="388" type="line"/>
      <point x="349" y="388" type="line"/>
      <point x="349" y="212" type="line"/>
      <point x="530" y="212" type="line"/>
      <point x="530" y="121" type="line"/>
      <point x="349" y="121" type="line"/>
      <point x="349" y="-100" type="line"/>
    </contour>
  </outline>
</glyph>
<glyph name="ellipsis" format="1">
  <advance width="600"/>
  <unicode hex="2026"/>
  <outline>
    <contour>
      <point x="492" y="-11" type="curve" smooth="yes"/>
      <point x="457" y="-11"/>
      <point x="431" y="15"/>
      <point x="431" y="57" type="curve" smooth="yes"/>
      <point x="431" y="98"/>
      <point x="457" y="126"/>
      <point x="492" y="126" type="curve" smooth="yes"/>
      <point x="527" y="126"/>
      <point x="552" y="98"/>
      <point x="552" y="57" type="curve" smooth="yes"/>
      <point x="552" y="15"/>
      <point x="527" y="-11"/>
    </contour>
    <contour>
      <point x="300" y="-11" type="curve" smooth="yes"/>
      <point x="266" y="-11"/>
      <point x="240" y="15"/>
      <point x="240" y="57" type="curve" smooth="yes"/>
      <point x="240" y="98"/>
      <point x="266" y="126"/>
      <point x="300" y="126" type="curve" smooth="yes"/>
      <point x="337" y="126"/>
      <point x="361" y="98"/>
      <point x="361" y="57" type="curve" smooth="yes"/>
      <point x="361" y="15"/>
      <point x="337" y="-11"/>
    </contour>
    <contour>
      <point x="109" y="-11" type="curve" smooth="yes"/>
      <point x="74" y="-11"/>
      <point x="49" y="15"/>
      <point x="49" y="57" type="curve" smooth="yes"/>
      <point x="49" y="98"/>
      <point x="74" y="126"/>
      <point x="109" y="126" type="curve" smooth="yes"/>
      <point x="145" y="126"/>
      <point x="170" y="98"/>
      <point x="170" y="57" type="curve" smooth="yes"/>
      <point x="170" y="15"/>
      <point x="145" y="-11"/>
    </contour>
  </outline>
</glyph>
<glyph name="perthousand" format="1">
  <advance width="600"/>
  <unicode hex="2030"/>
  <outline>
    <contour>
      <point x="89" y="316" type="curve" smooth="yes"/>
      <point x="33" y="316"/>
      <point x="5" y="384"/>
      <point x="5" y="514" type="curve" smooth="yes"/>
      <point x="5" y="644"/>
      <point x="33" y="711"/>
      <point x="88" y="711" type="curve" smooth="yes"/>
      <point x="143" y="711"/>
      <point x="172" y="644"/>
      <point x="172" y="514" type="curve" smooth="yes"/>
      <point x="172" y="384"/>
      <point x="145" y="316"/>
    </contour>
    <contour>
      <point x="58" y="0" type="line"/>
      <point x="298" y="700" type="line"/>
      <point x="349" y="700" type="line"/>
      <point x="106" y="0" type="line"/>
    </contour>
    <contour>
      <point x="512" y="-11" type="curve" smooth="yes"/>
      <point x="456" y="-11"/>
      <point x="428" y="56"/>
      <point x="428" y="186" type="curve" smooth="yes"/>
      <point x="428" y="316"/>
      <point x="456" y="384"/>
      <point x="511" y="384" type="curve" smooth="yes"/>
      <point x="567" y="384"/>
      <point x="595" y="317"/>
      <point x="595" y="187" type="curve" smooth="yes"/>
      <point x="595" y="57"/>
      <point x="568" y="-11"/>
    </contour>
    <contour>
      <point x="315" y="-11" type="curve" smooth="yes"/>
      <point x="259" y="-11"/>
      <point x="232" y="56"/>
      <point x="232" y="186" type="curve" smooth="yes"/>
      <point x="232" y="316"/>
      <point x="260" y="384"/>
      <point x="315" y="384" type="curve" smooth="yes"/>
      <point x="370" y="384"/>
      <point x="399" y="317"/>
      <point x="399" y="187" type="curve" smooth="yes"/>
      <point x="399" y="57"/>
      <point x="372" y="-11"/>
    </contour>
    <contour>
      <point x="88" y="369" type="curve" smooth="yes"/>
      <point x="109" y="369"/>
      <point x="118" y="404"/>
      <point x="118" y="514" type="curve" smooth="yes"/>
      <point x="118" y="623"/>
      <point x="109" y="658"/>
      <point x="88" y="658" type="curve" smooth="yes"/>
      <point x="66" y="658"/>
      <point x="59" y="623"/>
      <point x="59" y="514" type="curve" smooth="yes"/>
      <point x="59" y="405"/>
      <point x="68" y="369"/>
    </contour>
    <contour>
      <point x="512" y="42" type="curve" smooth="yes"/>
      <point x="532" y="42"/>
      <point x="541" y="77"/>
      <point x="541" y="186" type="curve" smooth="yes"/>
      <point x="541" y="296"/>
      <point x="532" y="330"/>
      <point x="511" y="330" type="curve" smooth="yes"/>
      <point x="490" y="330"/>
      <point x="482" y="296"/>
      <point x="482" y="187" type="curve" smooth="yes"/>
      <point x="482" y="78"/>
      <point x="491" y="42"/>
    </contour>
    <contour>
      <point x="315" y="42" type="curve" smooth="yes"/>
      <point x="336" y="42"/>
      <point x="345" y="77"/>
      <point x="345" y="186" type="curve" smooth="yes"/>
      <point x="345" y="296"/>
      <point x="336" y="330"/>
      <point x="314" y="330" type="curve" smooth="yes"/>
      <point x="293" y="330"/>
      <point x="286" y="296"/>
      <point x="286" y="187" type="curve" smooth="yes"/>
      <point x="286" y="78"/>
      <point x="295" y="42"/>
    </contour>
  </outline>
</glyph>
<glyph name="guilsinglleft" format="1">
  <advance width="600"/>
  <unicode hex="2039"/>
  <outline>
    <contour>
      <point x="339" y="0" type="line"/>
      <point x="125" y="262" type="line"/>
      <point x="339" y="525" type="line"/>
      <point x="460" y="525" type="line"/>
      <point x="242" y="263" type="line"/>
      <point x="460" y="0" type="line"/>
    </contour>
  </outline>
</glyph>
<glyph name="guilsinglright" format="1">
  <advance width="600"/>
  <unicode hex="203A"/>
  <outline>
    <contour>
      <point x="140" y="0" type="line"/>
      <point x="358" y="262" type="line"/>
      <point x="140" y="525" type="line"/>
      <point x="261" y="525" type="line"/>
      <point x="475" y="263" type="line"/>
      <point x="261" y="0" type="line"/>
    </contour>
  </outline>
</glyph>
<glyph name="fraction" format="1">
  <advance width="600"/>
  <unicode hex="2044"/>
  <outline>
    <contour>
      <point x="49" y="0" type="line"/>
      <point x="453" y="700" type="line"/>
      <point x="551" y="700" type="line"/>
      <point x="147" y="0" type="line"/>
    </contour>
  </outline>
</glyph>
<glyph name="Euro" format="1">
  <advance width="600"/>
  <unicode hex="20AC"/>
  <outline>
    <contour>
      <point x="343" y="-11" type="curve" smooth="yes"/>
      <point x="210" y="-11"/>
      <point x="124" y="81"/>
      <point x="101" y="243" type="curve"/>
      <point x="28" y="243" type="line"/>
      <point x="28" y="315" type="line"/>
      <point x="93" y="315" type="line"/>
      <point x="93" y="326"/>
      <point x="93" y="338"/>
      <point x="93" y="349" type="curve" smooth="yes"/>
      <point x="93" y="363"/>
      <point x="93" y="376"/>
      <point x="93" y="390" type="curve"/>
      <point x="28" y="390" type="line"/>
      <point x="28" y="461" type="line"/>
      <point x="101" y="461" type="line"/>
      <point x="129" y="624"/>
      <point x="217" y="711"/>
      <point x="346" y="711" type="curve" smooth="yes"/>
      <point x="454" y="711"/>
      <point x="506" y="664"/>
      <point x="551" y="574" type="curve"/>
      <point x="465" y="529" type="line"/>
      <point x="431" y="599"/>
      <point x="405" y="621"/>
      <point x="344" y="621" type="curve" smooth="yes"/>
      <point x="277" y="621"/>
      <point x="223" y="577"/>
      <point x="204" y="461" type="curve"/>
      <point x="415" y="461" type="line"/>
      <point x="415" y="390" type="line"/>
      <point x="197" y="390" type="line"/>
      <point x="196" y="377"/>
      <point x="196" y="364"/>
      <point x="196" y="351" type="curve" smooth="yes"/>
      <point x="196" y="338"/>
      <point x="196" y="326"/>
      <point x="197" y="315" type="curve"/>
      <point x="415" y="315" type="line"/>
      <point x="415" y="243" type="line"/>
      <point x="204" y="243" type="line"/>
      <point x="224" y="107"/>
      <point x="293" y="79"/>
      <point x="346" y="79" type="curve" smooth="yes"/>
      <point x="407" y="79"/>
      <point x="436" y="108"/>
      <point x="473" y="172" type="curve"/>
      <point x="553" y="125" type="line"/>
      <point x="506" y="45"/>
      <point x="451" y="-11"/>
    </contour>
  </outline>
</glyph>
<glyph name="uni2117" format="1">
  <advance width="600"/>
  <unicode hex="2117"/>
  <outline>
    <contour>
      <point x="299" y="-11" type="curve" smooth="yes"/>
      <point x="145" y="-11"/>
      <point x="51" y="136"/>
      <point x="51" y="350" type="curve" smooth="yes"/>
      <point x="51" y="564"/>
      <point x="145" y="711"/>
      <point x="299" y="711" type="curve" smooth="yes"/>
      <point x="455" y="711"/>
      <point x="550" y="564"/>
      <point x="550" y="350" type="curve" smooth="yes"/>
      <point x="550" y="136"/>
      <point x="455" y="-11"/>
    </contour>
    <contour>
      <point x="299" y="39" type="curve" smooth="yes"/>
      <point x="428" y="39"/>
      <point x="497" y="166"/>
      <point x="497" y="350" type="curve" smooth="yes"/>
      <point x="497" y="534"/>
      <point x="428" y="661"/>
      <point x="299" y="661" type="curve" smooth="yes"/>
      <point x="171" y="661"/>
      <point x="103" y="534"/>
      <point x="103" y="350" type="curve" smooth="yes"/>
      <point x="103" y="166"/>
      <point x="171" y="39"/>
    </contour>
    <contour>
      <point x="216" y="152" type="line"/>
      <point x="216" y="546" type="line"/>
      <point x="310" y="546" type="line" smooth="yes"/>
      <point x="369" y="546"/>
      <point x="415" y="513"/>
      <point x="415" y="433" type="curve" smooth="yes"/>
      <point x="415" y="349"/>
      <point x="365" y="314"/>
      <point x="306" y="314" type="curve" smooth="yes"/>
      <point x="276" y="314" type="line"/>
      <point x="276" y="152" type="line"/>
    </contour>
    <contour>
      <point x="276" y="367" type="line"/>
      <point x="305" y="367" type="line" smooth="yes"/>
      <point x="338" y="367"/>
      <point x="355" y="387"/>
      <point x="355" y="432" type="curve" smooth="yes"/>
      <point x="355" y="476"/>
      <point x="338" y="493"/>
      <point x="306" y="493" type="curve" smooth="yes"/>
      <point x="276" y="493" type="line"/>
    </contour>
  </outline>
</glyph>
<glyph name="trademark" format="1">
  <advance width="600"/>
  <unicode hex="2122"/>
  <outline>
    <contour>
      <point x="104" y="304" type="line"/>
      <point x="104" y="648" type="line"/>
      <point x="26" y="648" type="line"/>
      <point x="26" y="700" type="line"/>
      <point x="240" y="700" type="line"/>
      <point x="240" y="648" type="line"/>
      <point x="162" y="648" type="line"/>
      <point x="162" y="304" type="line"/>
    </contour>
    <contour>
      <point x="422" y="293" type="line"/>
      <point x="363" y="485" type="line" smooth="yes"/>
      <point x="355" y="510"/>
      <point x="346" y="542"/>
      <point x="342" y="561" type="curve"/>
      <point x="342" y="545"/>
      <point x="343" y="513"/>
      <point x="343" y="493" type="curve" smooth="yes"/>
      <point x="343" y="304" type="line"/>
      <point x="290" y="304" type="line"/>
      <point x="290" y="700" type="line"/>
      <point x="347" y="700" type="line"/>
      <point x="400" y="526" type="line" smooth="yes"/>
      <point x="410" y="493"/>
      <point x="419" y="458"/>
      <point x="423" y="436" type="curve"/>
      <point x="428" y="459"/>
      <point x="436" y="493"/>
      <point x="446" y="527" type="curve" smooth="yes"/>
      <point x="498" y="700" type="line"/>
      <point x="556" y="700" type="line"/>
      <point x="556" y="304" type="line"/>
      <point x="502" y="304" type="line"/>
      <point x="502" y="493" type="line" smooth="yes"/>
      <point x="502" y="513"/>
      <point x="503" y="545"/>
      <point x="504" y="563" type="curve"/>
      <point x="500" y="542"/>
      <point x="491" y="511"/>
      <point x="483" y="485" type="curve" smooth="yes"/>
    </contour>
  </outline>
</glyph>
<glyph name="arrowleft" format="1">
  <advance width="600"/>
  <unicode hex="2190"/>
  <outline>
    <contour>
      <point x="223" y="218" type="curve"/>
      <point x="218" y="215"/>
      <point x="210" y="216"/>
      <point x="203" y="222" type="curve" smooth="yes"/>
      <point x="34" y="348" type="line"/>
      <point x="203" y="473" type="line"/>
      <point x="210" y="480"/>
      <point x="218" y="480"/>
      <point x="223" y="477" type="curve"/>
      <point x="229" y="472"/>
      <point x="232" y="467"/>
      <point x="228" y="456" type="curve" smooth="yes"/>
      <point x="205" y="393" type="line"/>
      <point x="538" y="393" type="line"/>
      <point x="538" y="302" type="line"/>
      <point x="205" y="302" type="line"/>
      <point x="228" y="239" type="line" smooth="yes"/>
      <point x="232" y="229"/>
      <point x="229" y="223"/>
    </contour>
  </outline>
</glyph>
<glyph name="arrowup" format="1">
  <advance width="600"/>
  <unicode hex="2191"/>
  <outline>
    <contour>
      <point x="246" y="0" type="line"/>
      <point x="246" y="509" type="line"/>
      <point x="172" y="483" type="line" smooth="yes"/>
      <point x="161" y="479"/>
      <point x="155" y="482"/>
      <point x="149" y="489" type="curve" smooth="yes"/>
      <point x="144" y="495"/>
      <point x="145" y="505"/>
      <point x="153" y="513" type="curve"/>
      <point x="299" y="719" type="line"/>
      <point x="446" y="513" type="line"/>
      <point x="454" y="505"/>
      <point x="455" y="495"/>
      <point x="450" y="489" type="curve" smooth="yes"/>
      <point x="445" y="482"/>
      <point x="438" y="479"/>
      <point x="427" y="483" type="curve" smooth="yes"/>
      <point x="353" y="509" type="line"/>
      <point x="353" y="0" type="line"/>
    </contour>
  </outline>
</glyph>
<glyph name="arrowright" format="1">
  <advance width="600"/>
  <unicode hex="2192"/>
  <outline>
    <contour>
      <point x="377" y="218" type="curve" smooth="yes"/>
      <point x="370" y="223"/>
      <point x="369" y="229"/>
      <point x="372" y="239" type="curve" smooth="yes"/>
      <point x="394" y="302" type="line"/>
      <point x="61" y="302" type="line"/>
      <point x="61" y="393" type="line"/>
      <point x="394" y="393" type="line"/>
      <point x="372" y="456" type="line" smooth="yes"/>
      <point x="368" y="467"/>
      <point x="370" y="472"/>
      <point x="377" y="477" type="curve" smooth="yes"/>
      <point x="382" y="480"/>
      <point x="390" y="480"/>
      <point x="397" y="473" type="curve"/>
      <point x="566" y="348" type="line"/>
      <point x="397" y="222" type="line" smooth="yes"/>
      <point x="390" y="216"/>
      <point x="382" y="215"/>
    </contour>
  </outline>
</glyph>
<glyph name="arrowdown" format="1">
  <advance width="600"/>
  <unicode hex="2193"/>
  <outline>
    <contour>
      <point x="299" y="-19" type="line"/>
      <point x="153" y="187" type="line"/>
      <point x="145" y="195"/>
      <point x="144" y="205"/>
      <point x="149" y="211" type="curve" smooth="yes"/>
      <point x="155" y="218"/>
      <point x="161" y="221"/>
      <point x="172" y="217" type="curve" smooth="yes"/>
      <point x="246" y="191" type="line"/>
      <point x="246" y="700" type="line"/>
      <point x="353" y="700" type="line"/>
      <point x="353" y="191" type="line"/>
      <point x="427" y="217" type="line" smooth="yes"/>
      <point x="438" y="221"/>
      <point x="445" y="218"/>
      <point x="450" y="211" type="curve" smooth="yes"/>
      <point x="455" y="205"/>
      <point x="454" y="195"/>
      <point x="446" y="187" type="curve"/>
    </contour>
  </outline>
</glyph>
<glyph name="arrowboth" format="1">
  <advance width="600"/>
  <unicode hex="2194"/>
  <outline>
    <contour>
      <point x="193" y="233" type="curve"/>
      <point x="188" y="231"/>
      <point x="183" y="231"/>
      <point x="176" y="236" type="curve" smooth="yes"/>
      <point x="29" y="348" type="line"/>
      <point x="176" y="460" type="line"/>
      <point x="183" y="464"/>
      <point x="188" y="465"/>
      <point x="193" y="463" type="curve"/>
      <point x="198" y="459"/>
      <point x="199" y="454"/>
      <point x="196" y="444" type="curve" smooth="yes"/>
      <point x="176" y="387" type="line"/>
      <point x="424" y="387" type="line"/>
      <point x="404" y="444" type="line" smooth="yes"/>
      <point x="400" y="454"/>
      <point x="401" y="459"/>
      <point x="407" y="463" type="curve"/>
      <point x="412" y="465"/>
      <point x="418" y="464"/>
      <point x="424" y="460" type="curve" smooth="yes"/>
      <point x="571" y="348" type="line"/>
      <point x="424" y="236" type="line" smooth="yes"/>
      <point x="418" y="231"/>
      <point x="412" y="231"/>
      <point x="407" y="233" type="curve"/>
      <point x="401" y="237"/>
      <point x="401" y="242"/>
      <point x="404" y="251" type="curve" smooth="yes"/>
      <point x="424" y="309" type="line"/>
      <point x="176" y="309" type="line"/>
      <point x="196" y="251" type="line"/>
      <point x="198" y="242"/>
      <point x="198" y="237"/>
    </contour>
  </outline>
</glyph>
<glyph name="arrowupdn" format="1">
  <advance width="600"/>
  <unicode hex="2195"/>
  <outline>
    <contour>
      <point x="299" y="-19" type="line"/>
      <point x="153" y="187" type="line"/>
      <point x="145" y="195"/>
      <point x="144" y="205"/>
      <point x="149" y="211" type="curve" smooth="yes"/>
      <point x="155" y="218"/>
      <point x="161" y="221"/>
      <point x="172" y="217" type="curve" smooth="yes"/>
      <point x="246" y="191" type="line"/>
      <point x="246" y="509" type="line"/>
      <point x="172" y="483" type="line" smooth="yes"/>
      <point x="161" y="479"/>
      <point x="155" y="482"/>
      <point x="149" y="489" type="curve" smooth="yes"/>
      <point x="144" y="495"/>
      <point x="145" y="505"/>
      <point x="153" y="513" type="curve"/>
      <point x="299" y="719" type="line"/>
      <point x="446" y="513" type="line"/>
      <point x="454" y="505"/>
      <point x="455" y="495"/>
      <point x="450" y="489" type="curve" smooth="yes"/>
      <point x="445" y="482"/>
      <point x="438" y="479"/>
      <point x="427" y="483" type="curve" smooth="yes"/>
      <point x="353" y="509" type="line"/>
      <point x="353" y="191" type="line"/>
      <point x="427" y="217" type="line" smooth="yes"/>
      <point x="438" y="221"/>
      <point x="445" y="218"/>
      <point x="450" y="211" type="curve" smooth="yes"/>
      <point x="455" y="205"/>
      <point x="454" y="195"/>
      <point x="446" y="187" type="curve"/>
    </contour>
  </outline>
</glyph>
<glyph name="radical" format="1">
  <advance width="600"/>
  <unicode hex="221A"/>
  <outline>
    <contour>
      <point x="203" y="0" type="line"/>
      <point x="52" y="340" type="line"/>
      <point x="159" y="340" type="line"/>
      <point x="199" y="245" type="line" smooth="yes"/>
      <point x="216" y="204"/>
      <point x="241" y="134"/>
      <point x="251" y="96" type="curve"/>
      <point x="260" y="135"/>
      <point x="282" y="208"/>
      <point x="297" y="254" type="curve" smooth="yes"/>
      <point x="442" y="700" type="line"/>
      <point x="546" y="700" type="line"/>
      <point x="305" y="0" type="line"/>
    </contour>
  </outline>
</glyph>
<glyph name="apple" format="1">
  <advance width="600"/>
  <unicode hex="F8FF"/>
  <outline>
    <contour>
      <point x="300" y="-18" type="line"/>
      <point x="189" y="126" type="line" smooth="yes"/>
      <point x="183" y="133"/>
      <point x="182" y="138"/>
      <point x="185" y="144" type="curve" smooth="yes"/>
      <point x="188" y="149"/>
      <point x="194" y="149"/>
      <point x="203" y="146" type="curve" smooth="yes"/>
      <point x="262" y="124" type="line"/>
      <point x="262" y="311" type="line"/>
      <point x="170" y="311" type="line"/>
      <point x="191" y="251" type="line" smooth="yes"/>
      <point x="194" y="242"/>
      <point x="193" y="237"/>
      <point x="187" y="233" type="curve" smooth="yes"/>
      <point x="182" y="230"/>
      <point x="178" y="232"/>
      <point x="171" y="237" type="curve" smooth="yes"/>
      <point x="27" y="348" type="line"/>
      <point x="171" y="458" type="line" smooth="yes"/>
      <point x="178" y="464"/>
      <point x="182" y="465"/>
      <point x="187" y="462" type="curve" smooth="yes"/>
      <point x="193" y="459"/>
      <point x="195" y="454"/>
      <point x="191" y="444" type="curve" smooth="yes"/>
      <point x="170" y="385" type="line"/>
      <point x="262" y="385" type="line"/>
      <point x="262" y="576" type="line"/>
      <point x="203" y="554" type="line" smooth="yes"/>
      <point x="194" y="551"/>
      <point x="188" y="552"/>
      <point x="185" y="557" type="curve" smooth="yes"/>
      <point x="182" y="562"/>
      <point x="184" y="568"/>
      <point x="189" y="574" type="curve" smooth="yes"/>
      <point x="300" y="718" type="line"/>
      <point x="411" y="574" type="line" smooth="yes"/>
      <point x="416" y="568"/>
      <point x="416" y="563"/>
      <point x="414" y="558" type="curve"/>
      <point x="411" y="553"/>
      <point x="406" y="552"/>
      <point x="397" y="554" type="curve"/>
      <point x="337" y="576" type="line"/>
      <point x="337" y="385" type="line"/>
      <point x="428" y="385" type="line"/>
      <point x="408" y="444" type="line" smooth="yes"/>
      <point x="405" y="454"/>
      <point x="407" y="459"/>
      <point x="411" y="462" type="curve"/>
      <point x="416" y="465"/>
      <point x="421" y="464"/>
      <point x="428" y="458" type="curve" smooth="yes"/>
      <point x="572" y="348" type="line"/>
      <point x="428" y="237" type="line" smooth="yes"/>
      <point x="421" y="232"/>
      <point x="416" y="230"/>
      <point x="411" y="233" type="curve"/>
      <point x="407" y="237"/>
      <point x="405" y="242"/>
      <point x="408" y="251" type="curve" smooth="yes"/>
      <point x="428" y="311" type="line"/>
      <point x="337" y="311" type="line"/>
      <point x="337" y="124" type="line"/>
      <point x="397" y="146" type="line"/>
      <point x="406" y="148"/>
      <point x="411" y="148"/>
      <point x="414" y="143" type="curve"/>
      <point x="416" y="138"/>
      <point x="416" y="131"/>
      <point x="411" y="126" type="curve"/>
    </contour>
  </outline>
</glyph>
<glyph name="fl" format="1">
  <advance width="600"/>
  <unicode hex="FB02"/>
  <outline>
    <contour>
      <point x="420" y="0" type="line"/>
      <point x="420" y="681" type="line"/>
      <point x="520" y="729" type="line"/>
      <point x="520" y="0" type="line"/>
    </contour>
    <contour>
      <point x="110" y="0" type="line"/>
      <point x="110" y="442" type="line"/>
      <point x="44" y="442" type="line"/>
      <point x="44" y="525" type="line"/>
      <point x="110" y="525" type="line"/>
      <point x="110" y="594" type="line" smooth="yes"/>
      <point x="110" y="689"/>
      <point x="161" y="726"/>
      <point x="237" y="726" type="curve" smooth="yes"/>
      <point x="271" y="726"/>
      <point x="294" y="722"/>
      <point x="313" y="715" type="curve"/>
      <point x="313" y="631" type="line"/>
      <point x="297" y="638"/>
      <point x="279" y="642"/>
      <point x="257" y="642" type="curve" smooth="yes"/>
      <point x="228" y="642"/>
      <point x="209" y="631"/>
      <point x="209" y="593" type="curve" smooth="yes"/>
      <point x="209" y="525" type="line"/>
      <point x="302" y="525" type="line"/>
      <point x="302" y="442" type="line"/>
      <point x="209" y="442" type="line"/>
      <point x="209" y="0" type="line"/>
    </contour>
  </outline>
</glyph>
<glyph name="a.salt" format="1">
  <advance width="600"/>
  <outline>
    <contour>
      <point x="252" y="-11" type="curve" smooth="yes"/>
      <point x="153" y="-11"/>
      <point x="66" y="70"/>
      <point x="66" y="256" type="curve" smooth="yes"/>
      <point x="66" y="443"/>
      <point x="150" y="536"/>
      <point x="261" y="536" type="curve" smooth="yes"/>
      <point x="324" y="536"/>
      <point x="367" y="509"/>
      <point x="401" y="473" type="curve"/>
      <point x="401" y="525" type="line"/>
      <point x="507" y="525" type="line"/>
      <point x="507" y="0" type="line"/>
      <point x="401" y="0" type="line"/>
      <point x="401" y="57" type="line"/>
      <point x="365" y="20"/>
      <point x="319" y="-11"/>
    </contour>
    <contour>
      <point x="284" y="79" type="curve" smooth="yes"/>
      <point x="332" y="79"/>
      <point x="370" y="103"/>
      <point x="401" y="140" type="curve"/>
      <point x="401" y="383" type="line"/>
      <point x="375" y="418"/>
      <point x="334" y="446"/>
      <point x="281" y="446" type="curve" smooth="yes"/>
      <point x="209" y="446"/>
      <point x="173" y="386"/>
      <point x="173" y="259" type="curve" smooth="yes"/>
      <point x="173" y="125"/>
      <point x="214" y="79"/>
    </contour>
  </outline>
</glyph>
<glyph name="bullet" format="1">
  <advance width="600"/>
  <outline>
    <contour>
      <point x="300" y="192" type="curve" smooth="yes"/>
      <point x="203" y="192"/>
      <point x="126" y="269"/>
      <point x="126" y="366" type="curve" smooth="yes"/>
      <point x="126" y="463"/>
      <point x="203" y="543"/>
      <point x="300" y="543" type="curve" smooth="yes"/>
      <point x="397" y="543"/>
      <point x="474" y="463"/>
      <point x="474" y="366" type="curve" smooth="yes"/>
      <point x="474" y="269"/>
      <point x="397" y="192"/>
    </contour>
  </outline>
</glyph>
<glyph name="macron" format="1">
  <advance width="600"/>
  <outline>
    <contour>
      <point x="156" y="616" type="line"/>
      <point x="156" y="699" type="line"/>
      <point x="444" y="699" type="line"/>
      <point x="444" y="616" type="line"/>
    </contour>
  </outline>
</glyph>
<glyph name="registered" format="1">
  <advance width="600"/>
  <outline>
    <contour>
      <point x="299" y="-11" type="curve" smooth="yes"/>
      <point x="145" y="-11"/>
      <point x="51" y="136"/>
      <point x="51" y="350" type="curve" smooth="yes"/>
      <point x="51" y="564"/>
      <point x="145" y="711"/>
      <point x="299" y="711" type="curve" smooth="yes"/>
      <point x="455" y="711"/>
      <point x="550" y="564"/>
      <point x="550" y="350" type="curve" smooth="yes"/>
      <point x="550" y="136"/>
      <point x="455" y="-11"/>
    </contour>
    <contour>
      <point x="299" y="39" type="curve" smooth="yes"/>
      <point x="428" y="39"/>
      <point x="497" y="166"/>
      <point x="497" y="350" type="curve" smooth="yes"/>
      <point x="497" y="534"/>
      <point x="428" y="661"/>
      <point x="299" y="661" type="curve" smooth="yes"/>
      <point x="171" y="661"/>
      <point x="103" y="534"/>
      <point x="103" y="350" type="curve" smooth="yes"/>
      <point x="103" y="166"/>
      <point x="171" y="39"/>
    </contour>
    <contour>
      <point x="207" y="162" type="line"/>
      <point x="207" y="556" type="line"/>
      <point x="304" y="556" type="line" smooth="yes"/>
      <point x="364" y="556"/>
      <point x="409" y="524"/>
      <point x="409" y="447" type="curve" smooth="yes"/>
      <point x="409" y="397"/>
      <point x="389" y="365"/>
      <point x="358" y="347" type="curve"/>
      <point x="414" y="162" type="line"/>
      <point x="349" y="162" type="line"/>
      <point x="300" y="332" type="line"/>
      <point x="296" y="332"/>
      <point x="273" y="332"/>
      <point x="268" y="332" type="curve"/>
      <point x="268" y="162" type="line"/>
    </contour>
    <contour>
      <point x="268" y="383" type="line"/>
      <point x="299" y="383" type="line" smooth="yes"/>
      <point x="332" y="383"/>
      <point x="348" y="405"/>
      <point x="348" y="445" type="curve" smooth="yes"/>
      <point x="348" y="485"/>
      <point x="332" y="504"/>
      <point x="301" y="504" type="curve" smooth="yes"/>
      <point x="268" y="504" type="line"/>
    </contour>
  </outline>
</glyph>
